Amstelvar-Roman-opsz-max-wgthmax.ufo
<glyph name="numbersign" format="2">
  <advance width="1144"/>
  <unicode hex="0023"/>
  <outline>
    <contour>
      <point x="26.10769230769231" y="378.96923076923076" type="line"/>
      <point x="26.10769230769231" y="636.6923076923077" type="line"/>
      <point x="1036.2769230769231" y="636.6923076923077" type="line"/>
      <point x="1036.2769230769231" y="378.96923076923076" type="line"/>
    </contour>
    <contour>
      <point x="108.12307692307692" y="846.2" type="line"/>
      <point x="108.12307692307692" y="1103.923076923077" type="line"/>
      <point x="1117.6615384615384" y="1103.923076923077" type="line"/>
      <point x="1117.6615384615384" y="846.2" type="line"/>
    </contour>
    <contour>
      <point x="196.1182186234818" y="-33.50769230769231" type="line"/>
      <point x="487.4412955465587" y="1501.8923076923077" type="line"/>
      <point x="547.4202429149798" y="1494.5076923076922" type="line"/>
      <point x="255.46639676113358" y="-40.89230769230769" type="line"/>
    </contour>
    <contour>
      <point x="589.7182186234818" y="-33.50769230769231" type="line"/>
      <point x="881.6720647773279" y="1501.8923076923077" type="line"/>
      <point x="941.0202429149798" y="1494.5076923076922" type="line"/>
      <point x="649.0663967611335" y="-40.89230769230769" type="line"/>
    </contour>
  </outline>
</glyph>
<glyph name="ampersand" format="2">
  <advance width="1768"/>
  <unicode hex="0026"/>
  <outline>
    <contour>
      <point x="667.3230769230769" y="-31.784615384615385" type="qcurve" smooth="yes"/>
      <point x="372.38461538461536" y="-31.784615384615385"/>
      <point x="39.05668016194332" y="193.2178137651822"/>
      <point x="45.6412955465587" y="374.12145748987854" type="qcurve" smooth="yes"/>
      <point x="50.48744939271255" y="544.3740890688258"/>
      <point x="315.90364372469634" y="752.787044534413"/>
      <point x="626.1668016194332" y="885.8696356275303" type="qcurve"/>
      <point x="757.6518218623482" y="951.1668016194332"/>
      <point x="897.3246963562754" y="1115.9797570850203"/>
      <point x="897.3246963562754" y="1220.2445344129555" type="qcurve" smooth="yes"/>
      <point x="897.3246963562754" y="1321.037246963563"/>
      <point x="787.4947368421053" y="1448.0744939271253"/>
      <point x="687.9546558704453" y="1448.0744939271253" type="qcurve" smooth="yes"/>
      <point x="591.8736842105263" y="1448.0744939271253"/>
      <point x="484.6615384615385" y="1326.8194331983805"/>
      <point x="482.6615384615385" y="1230.2493927125506" type="qcurve" smooth="yes"/>
      <point x="480.6615384615385" y="1135.3384615384616"/>
      <point x="599.0218623481782" y="981.6704453441296"/>
      <point x="754.0461538461539" y="859.3538461538461" type="qcurve"/>
      <point x="1332.123076923077" y="226.06153846153848" type="line" smooth="yes"/>
      <point x="1387.7433198380565" y="163.00728744939272"/>
      <point x="1470.7133603238867" y="128.8331983805668"/>
      <point x="1514.3732793522267" y="128.8331983805668" type="qcurve" smooth="yes"/>
      <point x="1566.8615384615384" y="128.8331983805668"/>
      <point x="1657.5935222672065" y="184.7417004048583"/>
      <point x="1694.2914979757084" y="253.52307692307696" type="qcurve"/>
      <point x="1751.753846153846" y="185.98461538461538" type="line"/>
      <point x="1707.3846153846155" y="95.53846153846153"/>
      <point x="1537.1692307692308" y="-29.43076923076923"/>
      <point x="1369.0153846153846" y="-28.8" type="qcurve" smooth="yes"/>
      <point x="1250.0" y="-28.16923076923077"/>
      <point x="1038.0" y="66.75384615384615"/>
      <point x="954.4461538461538" y="165.53846153846155" type="qcurve" smooth="yes"/>
      <point x="428.9384615384615" y="740.8923076923077" type="line"/>
      <point x="308.10040485829956" y="860.4623481781376"/>
      <point x="200.83076923076925" y="1051.2769230769231"/>
      <point x="197.7846153846154" y="1172.8307692307692" type="qcurve" smooth="yes"/>
      <point x="194.73846153846154" y="1342.553846153846"/>
      <point x="465.9384615384615" y="1528.8923076923077"/>
      <point x="675.9076923076923" y="1528.8923076923077" type="qcurve" smooth="yes"/>
      <point x="878.3384615384615" y="1528.8923076923077"/>
      <point x="1065.1846153846154" y="1342.8307692307692"/>
      <point x="1057.1846153846154" y="1205.4" type="qcurve" smooth="yes"/>
      <point x="1049.1846153846154" y="1058.7692307692307"/>
      <point x="805.6615384615385" y="866.8615384615384"/>
      <point x="657.5384615384615" y="804.5230769230769" type="qcurve"/>
      <point x="496.5076923076923" y="725.7538461538461"/>
      <point x="421.7821862348178" y="514.4987854251012"/>
      <point x="429.63076923076926" y="401.4923076923077" type="qcurve" smooth="yes"/>
      <point x="439.4153846153846" y="272.43967611336035"/>
      <point x="618.0502024291499" y="91.00728744939272"/>
      <point x="794.1028340080973" y="91.00728744939272" type="qcurve" smooth="yes"/>
      <point x="1055.0461538461539" y="91.00728744939272"/>
      <point x="1415.4307692307693" y="477.9400809716599"/>
      <point x="1458.731983805668" y="795.6202429149798" type="qcurve"/>
      <point x="1613.2" y="798.2615384615385" type="line"/>
      <point x="1570.5076923076922" y="463.53846153846155"/>
      <point x="1022.6769230769231" y="-31.784615384615385"/>
    </contour>
    <contour>
      <point x="1029.2882591093119" y="753.8348178137652" type="line"/>
      <point x="1054.404048582996" y="827.4485829959514"/>
      <point x="1149.4437246963564" y="918.3497975708502"/>
      <point x="1200.2283400809717" y="918.3497975708502" type="qcurve" smooth="yes"/>
      <point x="1238.0283400809717" y="918.3497975708502"/>
      <point x="1531.9902834008099" y="822.0331983805668"/>
      <point x="1586.2518218623484" y="822.0331983805668" type="qcurve" smooth="yes"/>
      <point x="1620.6672064777329" y="822.0331983805668"/>
      <point x="1686.4404858299597" y="847.012955465587"/>
      <point x="1711.6153846153848" y="883.5255060728745" type="qcurve"/>
      <point x="1769.4995951417004" y="831.6672064777329" type="line"/>
      <point x="1740.0615384615385" y="768.1748987854251"/>
      <point x="1624.076923076923" y="660.6923076923077"/>
      <point x="1578.4615384615383" y="660.6923076923077" type="qcurve" smooth="yes"/>
      <point x="1513.5230769230768" y="660.6923076923077"/>
      <point x="1207.1352226720646" y="748.5724696356275"/>
      <point x="1172.1813765182185" y="747.310931174089" type="qcurve" smooth="yes"/>
      <point x="1136.5967611336032" y="748.5724696356275"/>
      <point x="1081.6" y="728.548987854251"/>
      <point x="1061.753846153846" y="704.1538461538462" type="qcurve"/>
    </contour>
  </outline>
</glyph>
<glyph name="plus" format="2">
  <advance width="992"/>
  <unicode hex="002B"/>
  <outline>
    <contour>
      <point x="56.06153846153846" y="504.61538461538464" type="line"/>
      <point x="56.06153846153846" y="759.3846153846154" type="line"/>
      <point x="935.4769230769231" y="759.3846153846154" type="line"/>
      <point x="935.4769230769231" y="504.61538461538464" type="line"/>
    </contour>
    <contour>
      <point x="344.83076923076925" y="200.47692307692307" type="line"/>
      <point x="344.83076923076925" y="1063.5230769230768" type="line"/>
      <point x="646.0769230769231" y="1063.5230769230768" type="line"/>
      <point x="646.0769230769231" y="200.47692307692307" type="line"/>
    </contour>
  </outline>
</glyph>
<glyph name="comma" format="2">
  <advance width="616"/>
  <unicode hex="002C"/>
  <outline>
    <contour>
      <point x="105.98137651821864" y="-278.77894736842103" type="line"/>
      <point x="191.8421052631579" y="-223.50850202429152"/>
      <point x="315.95546558704456" y="-87.52955465587044"/>
      <point x="355.79676113360324" y="17.709311740890687" type="qcurve"/>
      <point x="208.75384615384615" y="10.302024291497975"/>
      <point x="92.06153846153846" y="128.84615384615384"/>
      <point x="92.06153846153846" y="210.90769230769232" type="qcurve" smooth="yes"/>
      <point x="92.06153846153846" y="291.6"/>
      <point x="214.7076923076923" y="410.0923076923077"/>
      <point x="311.87692307692305" y="410.0923076923077" type="qcurve" smooth="yes"/>
      <point x="406.9384615384615" y="410.0923076923077"/>
      <point x="532.3230769230769" y="297.66153846153844"/>
      <point x="532.3230769230769" y="189.27692307692308" type="qcurve" smooth="yes"/>
      <point x="532.3230769230769" y="47.56923076923077"/>
      <point x="278.4769230769231" y="-253.01538461538462"/>
      <point x="130.30769230769232" y="-314.0153846153846" type="qcurve"/>
    </contour>
  </outline>
</glyph>
<glyph name="hyphen" format="2">
  <advance width="826"/>
  <unicode hex="002D"/>
  <outline>
    <contour>
      <point x="60.0" y="502.83076923076925" type="line"/>
      <point x="60.0" y="809.276923076923" type="line"/>
      <point x="413.0" y="807.8" type="line"/>
      <point x="766.0" y="809.276923076923" type="line"/>
      <point x="766.0" y="502.83076923076925" type="line"/>
      <point x="413.0" y="504.3076923076923" type="line"/>
    </contour>
  </outline>
</glyph>
<glyph name="period" format="2">
  <advance width="616"/>
  <unicode hex="002E"/>
  <outline>
    <contour>
      <point x="79.64615384615385" y="192.96923076923076" type="qcurve" smooth="yes"/>
      <point x="79.64615384615385" y="281.03076923076924"/>
      <point x="207.55384615384617" y="408.67692307692306"/>
      <point x="306.9846153846154" y="408.67692307692306" type="qcurve" smooth="yes"/>
      <point x="406.4153846153846" y="408.67692307692306"/>
      <point x="535.9538461538461" y="281.03076923076924"/>
      <point x="535.9538461538461" y="192.96923076923076" type="qcurve" smooth="yes"/>
      <point x="535.9538461538461" y="107.27692307692308"/>
      <point x="406.4153846153846" y="-22.0"/>
      <point x="306.9846153846154" y="-22.0" type="qcurve" smooth="yes"/>
      <point x="207.55384615384617" y="-22.0"/>
      <point x="79.64615384615385" y="107.27692307692308"/>
    </contour>
  </outline>
</glyph>
<glyph name="four" format="2">
  <advance width="1423"/>
  <unicode hex="0034"/>
  <outline>
    <contour>
      <point x="42.55384615384615" y="512.6615384615385" type="line"/>
      <point x="733.8153846153846" y="1491.4923076923078" type="line"/>
      <point x="1064.8153846153846" y="1472.6" type="line"/>
      <point x="1109.246153846154" y="1442.4615384615386" type="line"/>
      <point x="1104.246153846154" y="521.9384615384615" type="line"/>
      <point x="1103.246153846154" y="92.25668016194331" type="line"/>
      <point x="1303.0" y="57.25668016194331" type="line"/>
      <point x="1303.0" y="0.0" type="line"/>
      <point x="397.5230769230769" y="0.0" type="line"/>
      <point x="397.5230769230769" y="57.25668016194331" type="line"/>
      <point x="634.5538461538462" y="92.25668016194331" type="line"/>
      <point x="630.876923076923" y="523.0923076923077" type="line"/>
      <point x="628.6615384615385" y="1228.0097165991901" type="line"/>
      <point x="162.7554655870445" y="581.5538461538462" type="line"/>
      <point x="160.86315789473684" y="565.4461538461538" type="line"/>
      <point x="1350.446153846154" y="571.123076923077" type="line"/>
      <point x="1350.446153846154" y="462.38461538461536" type="line"/>
      <point x="56.87692307692308" y="433.6" type="line"/>
    </contour>
  </outline>
</glyph>
<glyph name="seven" format="2">
  <advance width="1423"/>
  <unicode hex="0037"/>
  <outline>
    <contour>
      <point x="207.5481781376518" y="1005.5384615384615" type="line"/>
      <point x="206.28663967611334" y="1500.0" type="line"/>
      <point x="1243.5165991902834" y="1500.0" type="line"/>
      <point x="1243.5165991902834" y="1336.246153846154" type="line"/>
      <point x="977.2542510121458" y="682.8834008097166" type="line"/>
      <point x="726.9263157894737" y="7.430769230769229" type="line"/>
      <point x="451.5554655870445" y="7.430769230769229" type="line"/>
      <point x="451.5554655870445" y="63.56923076923077" type="line"/>
      <point x="811.8461538461539" y="671.3230769230769" type="line"/>
      <point x="1077.9368421052632" y="1159.0923076923077" type="line"/>
      <point x="1069.485020242915" y="1166.7384615384615" type="line"/>
      <point x="284.2372469635627" y="1166.7384615384615" type="line"/>
      <point x="237.09878542510123" y="1005.5384615384615" type="line"/>
    </contour>
  </outline>
</glyph>
<glyph name="eight" format="2">
  <advance width="1423"/>
  <unicode hex="0038"/>
  <outline>
    <contour>
      <point x="93.01538461538462" y="354.80647773279355" type="qcurve" smooth="yes"/>
      <point x="93.01538461538462" y="513.3538461538462"/>
      <point x="389.1967611336032" y="731.8477732793522"/>
      <point x="644.034008097166" y="797.5878542510122" type="qcurve"/>
      <point x="681.7611336032388" y="779.88987854251" type="line"/>
      <point x="611.2931174089068" y="713.4947368421052"/>
      <point x="474.9570850202429" y="490.5838056680162"/>
      <point x="474.9570850202429" y="315.65263157894736" type="qcurve" smooth="yes"/>
      <point x="474.9570850202429" y="159.64048582995952"/>
      <point x="585.6574898785425" y="19.97165991902834"/>
      <point x="680.1846153846154" y="19.97165991902834" type="qcurve" smooth="yes"/>
      <point x="769.4121457489879" y="19.97165991902834"/>
      <point x="885.0655870445345" y="153.5919028340081"/>
      <point x="885.0655870445345" y="281.45829959514174" type="qcurve" smooth="yes"/>
      <point x="885.0655870445345" y="411.08906882591094"/>
      <point x="727.5384615384615" y="582.4153846153846"/>
      <point x="578.6" y="660.7846153846153" type="qcurve" smooth="yes"/>
      <point x="363.03076923076924" y="763.6769230769231"/>
      <point x="192.81538461538463" y="972.1538461538462"/>
      <point x="196.81538461538463" y="1151.0923076923077" type="qcurve" smooth="yes"/>
      <point x="200.81538461538463" y="1314.1538461538462"/>
      <point x="459.2153846153846" y="1518.6923076923076"/>
      <point x="714.1692307692308" y="1518.6923076923076" type="qcurve" smooth="yes"/>
      <point x="960.8153846153846" y="1518.6923076923076"/>
      <point x="1209.9384615384615" y="1362.5692307692307"/>
      <point x="1209.9384615384615" y="1210.8315789473684" type="qcurve" smooth="yes"/>
      <point x="1209.9384615384615" y="1078.9246963562753"/>
      <point x="972.5546558704453" y="878.3578947368421"/>
      <point x="781.6526315789474" y="824.4623481781376" type="qcurve"/>
      <point x="721.1085020242915" y="835.4016194331983" type="line"/>
      <point x="800.2906882591093" y="902.8170040485829"/>
      <point x="887.9732793522268" y="1103.1441295546558"/>
      <point x="887.9732793522268" y="1226.7004048582996" type="qcurve" smooth="yes"/>
      <point x="887.9732793522268" y="1352.5344129554655"/>
      <point x="787.3085020242914" y="1465.1943319838058"/>
      <point x="711.4769230769231" y="1465.1943319838058" type="qcurve" smooth="yes"/>
      <point x="648.3595141700405" y="1465.1943319838058"/>
      <point x="565.5165991902834" y="1379.8502024291497"/>
      <point x="565.5165991902834" y="1268.131983805668" type="qcurve" smooth="yes"/>
      <point x="565.5165991902834" y="1143.8825910931173"/>
      <point x="693.6153846153846" y="1004.1538461538462"/>
      <point x="881.4923076923077" y="924.8461538461538" type="qcurve" smooth="yes"/>
      <point x="1078.2153846153847" y="842.8"/>
      <point x="1329.7230769230769" y="603.4461538461538"/>
      <point x="1329.7230769230769" y="413.44615384615383" type="qcurve" smooth="yes"/>
      <point x="1329.7230769230769" y="207.92307692307693"/>
      <point x="1005.876923076923" y="-26.630769230769232"/>
      <point x="686.3846153846154" y="-26.630769230769232" type="qcurve" smooth="yes"/>
      <point x="387.1384615384615" y="-26.630769230769232"/>
      <point x="93.01538461538462" y="181.92307692307693"/>
    </contour>
  </outline>
</glyph>
<glyph name="nine" format="2">
  <advance width="1423"/>
  <unicode hex="0039"/>
  <outline>
    <contour>
      <point x="1354.9692307692308" y="859.9692307692308" type="qcurve" smooth="yes"/>
      <point x="1354.9692307692308" y="420.6"/>
      <point x="772.6607287449393" y="-37.022672064777325"/>
      <point x="290.62995951417" y="-33.622672064777326" type="qcurve"/>
      <point x="305.8914979757085" y="38.581376518218626" type="line"/>
      <point x="557.5368421052632" y="53.861538461538466"/>
      <point x="851.6461538461539" y="464.9101214574899"/>
      <point x="851.6461538461539" y="826.1198380566801" type="qcurve" smooth="yes"/>
      <point x="851.6461538461539" y="1233.9255060728744"/>
      <point x="765.1538461538462" y="1471.3538461538462"/>
      <point x="679.2" y="1471.3538461538462" type="qcurve" smooth="yes"/>
      <point x="593.1878542510121" y="1471.3538461538462"/>
      <point x="507.5255060728745" y="1317.9522267206478"/>
      <point x="507.5255060728745" y="1069.3255060728743" type="qcurve" smooth="yes"/>
      <point x="507.5255060728745" y="833.8696356275303"/>
      <point x="567.9935222672065" y="687.6534412955465"/>
      <point x="642.1684210526316" y="687.6534412955465" type="qcurve" smooth="yes"/>
      <point x="665.8234817813765" y="687.6534412955465"/>
      <point x="742.4769230769231" y="721.0655870445344"/>
      <point x="758.5643724696357" y="738.7076923076924" type="qcurve"/>
      <point x="769.8178137651822" y="685.0153846153846" type="line"/>
      <point x="745.9716599190283" y="655.276923076923"/>
      <point x="605.2153846153847" y="602.5384615384615"/>
      <point x="510.6923076923077" y="602.5384615384615" type="qcurve" smooth="yes"/>
      <point x="310.32793522267207" y="602.5384615384615"/>
      <point x="57.57165991902834" y="818.9716599190284"/>
      <point x="57.57165991902834" y="1065.0615384615385" type="qcurve" smooth="yes"/>
      <point x="57.57165991902834" y="1263.0615384615385"/>
      <point x="396.9846153846154" y="1526.0"/>
      <point x="686.0923076923077" y="1526.0" type="qcurve" smooth="yes"/>
      <point x="977.0615384615385" y="1526.0"/>
      <point x="1354.9692307692308" y="1206.1384615384616"/>
    </contour>
  </outline>
</glyph>
<glyph name="semicolon" format="2">
  <advance width="676"/>
  <unicode hex="003B"/>
  <outline>
    <contour>
      <point x="115.01376518218623" y="-271.29068825910934" type="line"/>
      <point x="199.93846153846155" y="-216.3255060728745"/>
      <point x="325.3133603238866" y="-85.63724696356276"/>
      <point x="365.15465587044537" y="18.014574898785426" type="qcurve"/>
      <point x="219.67854251012147" y="14.046153846153846"/>
      <point x="110.8" y="127.58461538461539"/>
      <point x="110.8" y="208.3846153846154" type="qcurve" smooth="yes"/>
      <point x="110.8" y="287.18461538461537"/>
      <point x="231.55384615384617" y="404.4153846153846"/>
      <point x="328.0923076923077" y="404.4153846153846" type="qcurve" smooth="yes"/>
      <point x="422.5230769230769" y="404.4153846153846"/>
      <point x="546.6461538461539" y="292.61538461538464"/>
      <point x="546.6461538461539" y="186.75384615384615" type="qcurve" smooth="yes"/>
      <point x="546.6461538461539" y="48.2"/>
      <point x="294.6923076923077" y="-253.64615384615385"/>
      <point x="145.8923076923077" y="-314.0153846153846" type="qcurve"/>
    </contour>
    <contour>
      <point x="112.8" y="790.0153846153846" type="qcurve" smooth="yes"/>
      <point x="112.8" y="876.1846153846154"/>
      <point x="238.81538461538463" y="1002.5692307692308"/>
      <point x="336.9846153846154" y="1002.5692307692308" type="qcurve" smooth="yes"/>
      <point x="435.15384615384613" y="1002.5692307692308"/>
      <point x="562.8" y="876.1846153846154"/>
      <point x="562.8" y="790.0153846153846" type="qcurve" smooth="yes"/>
      <point x="562.8" y="704.9538461538461"/>
      <point x="435.15384615384613" y="576.9384615384615"/>
      <point x="336.9846153846154" y="576.9384615384615" type="qcurve" smooth="yes"/>
      <point x="238.81538461538463" y="576.9384615384615"/>
      <point x="112.8" y="704.9538461538461"/>
    </contour>
  </outline>
</glyph>
<glyph name="B" format="2">
  <advance width="1514"/>
  <unicode hex="0042"/>
  <outline>
    <contour>
      <point x="28.753846153846155" y="0.0" type="line"/>
      <point x="28.753846153846155" y="58.27125506072875" type="line"/>
      <point x="179.63076923076923" y="93.27125506072875" type="line"/>
      <point x="181.63076923076923" y="754.0" type="line"/>
      <point x="179.63076923076923" y="1404.3101214574897" type="line"/>
      <point x="28.753846153846155" y="1438.3101214574897" type="line"/>
      <point x="28.753846153846155" y="1500.0" type="line"/>
      <point x="961.1076923076923" y="1500.0" type="line" smooth="yes"/>
      <point x="1185.3384615384616" y="1500.0"/>
      <point x="1385.2" y="1312.0"/>
      <point x="1385.2" y="1170.8923076923077" type="qcurve" smooth="yes"/>
      <point x="1385.2" y="1034.6307692307691"/>
      <point x="1249.1295546558704" y="857.1943319838057"/>
      <point x="1123.140890688259" y="836.6769230769231" type="qcurve"/>
      <point x="1123.140890688259" y="829.6769230769231" type="line"/>
      <point x="1268.4987854251012" y="807.9036437246964"/>
      <point x="1456.8923076923077" y="609.6769230769231"/>
      <point x="1456.8923076923077" y="437.4153846153846" type="qcurve" smooth="yes"/>
      <point x="1456.8923076923077" y="248.52307692307693"/>
      <point x="1243.7076923076922" y="1.0"/>
      <point x="990.1076923076923" y="0.0" type="qcurve" smooth="yes"/>
    </contour>
    <contour>
      <point x="669.4307692307692" y="88.89068825910931" type="line"/>
      <point x="690.357894736842" y="68.25991902834008" type="line"/>
      <point x="756.0923076923077" y="68.25991902834008" type="line" smooth="yes"/>
      <point x="863.7538461538461" y="68.25991902834008"/>
      <point x="963.8307692307692" y="233.48016194331984"/>
      <point x="963.8307692307692" y="433.8137651821862" type="qcurve" smooth="yes"/>
      <point x="963.8307692307692" y="619.2259109311741"/>
      <point x="862.6" y="782.336032388664"/>
      <point x="781.2615384615385" y="782.336032388664" type="qcurve" smooth="yes"/>
      <point x="670.4923076923077" y="782.336032388664" type="line"/>
      <point x="666.1692307692308" y="773.4931174089069" type="line"/>
    </contour>
    <contour>
      <point x="666.8" y="856.9910931174089" type="line"/>
      <point x="669.123076923077" y="845.6688259109311" type="line"/>
      <point x="750.7692307692307" y="845.6688259109311" type="line" smooth="yes"/>
      <point x="831.8461538461538" y="845.6688259109311"/>
      <point x="894.4" y="1010.5133603238866"/>
      <point x="894.4" y="1170.6323886639677" type="qcurve" smooth="yes"/>
      <point x="894.4" y="1322.6842105263158"/>
      <point x="808.6" y="1437.7829959514172"/>
      <point x="744.5230769230769" y="1438.0882591093118" type="qcurve" smooth="yes"/>
      <point x="682.8955465587045" y="1438.0882591093118" type="line"/>
      <point x="669.8" y="1428.4866396761133" type="line"/>
    </contour>
  </outline>
</glyph>
<glyph name="D" format="2">
  <advance width="1603"/>
  <unicode hex="0044"/>
  <outline>
    <contour>
      <point x="28.753846153846155" y="0.0" type="line"/>
      <point x="28.753846153846155" y="58.27125506072875" type="line"/>
      <point x="179.63076923076923" y="97.32064777327935" type="line"/>
      <point x="181.63076923076923" y="757.1538461538462" type="line"/>
      <point x="179.63076923076923" y="1400.8914979757085" type="line"/>
      <point x="28.753846153846155" y="1438.3101214574897" type="line"/>
      <point x="28.753846153846155" y="1500.0" type="line"/>
      <point x="748.0615384615385" y="1500.0" type="line" smooth="yes"/>
      <point x="1113.4307692307693" y="1502.0"/>
      <point x="1544.8153846153846" y="1136.6615384615384"/>
      <point x="1544.8153846153846" y="777.0" type="qcurve" smooth="yes"/>
      <point x="1544.8153846153846" y="407.4769230769231"/>
      <point x="1114.4307692307693" y="0.0"/>
      <point x="705.4769230769231" y="0.0" type="qcurve" smooth="yes"/>
    </contour>
    <contour>
      <point x="670.8" y="78.29230769230769" type="line"/>
      <point x="686.4923076923077" y="73.24858299595141"/>
      <point x="756.2" y="66.83562753036438"/>
      <point x="791.2153846153847" y="66.83562753036438" type="qcurve" smooth="yes"/>
      <point x="922.2" y="66.83562753036438"/>
      <point x="1036.6461538461538" y="417.4364372469636"/>
      <point x="1038.0153846153846" y="756.0526315789474" type="qcurve" smooth="yes"/>
      <point x="1038.3846153846155" y="1073.8631578947368"/>
      <point x="902.5846153846154" y="1422.0072874493926"/>
      <point x="778.5692307692308" y="1422.0072874493926" type="qcurve" smooth="yes"/>
      <point x="749.8307692307692" y="1422.0072874493926"/>
      <point x="687.8615384615384" y="1409.702024291498"/>
      <point x="671.8" y="1402.1991902834009" type="qcurve"/>
      <point x="668.8" y="750.1538461538462" type="line"/>
    </contour>
  </outline>
</glyph>
<glyph name="E" format="2">
  <advance width="1300"/>
  <unicode hex="0045"/>
  <outline>
    <contour>
      <point x="28.753846153846155" y="0.0" type="line"/>
      <point x="28.753846153846155" y="58.27125506072875" type="line"/>
      <point x="179.63076923076923" y="92.00971659919028" type="line"/>
      <point x="181.63076923076923" y="754.6307692307693" type="line"/>
      <point x="179.63076923076923" y="1406.2024291497974" type="line"/>
      <point x="28.753846153846155" y="1440.2024291497974" type="line"/>
      <point x="28.753846153846155" y="1500.0" type="line"/>
      <point x="1173.7473684210527" y="1500.0" type="line"/>
      <point x="1173.7473684210527" y="1156.6615384615384" type="line"/>
      <point x="1097.795951417004" y="1156.6615384615384" type="line"/>
      <point x="996.5821862348178" y="1426.2024291497974" type="line"/>
      <point x="732.6186234817814" y="1426.2024291497974" type="line"/>
      <point x="672.4307692307692" y="1403.4639676113359" type="line"/>
      <point x="670.4307692307692" y="786.6834008097167" type="line"/>
      <point x="672.4307692307692" y="109.09392712550606" type="line"/>
      <point x="734.0461538461539" y="82.20161943319839" type="line"/>
      <point x="1036.8" y="82.20161943319839" type="line"/>
      <point x="1180.182995951417" y="383.33846153846156" type="line"/>
      <point x="1254.8089068825911" y="383.33846153846156" type="line"/>
      <point x="1217.4396761133605" y="0.0" type="line"/>
    </contour>
    <contour>
      <point x="429.36923076923074" y="754.0785425101215" type="line"/>
      <point x="429.36923076923074" y="824.0267206477733" type="line"/>
      <point x="965.034008097166" y="832.1344129554656" type="line"/>
      <point x="1025.4056680161943" y="995.8032388663967" type="line"/>
      <point x="1087.421052631579" y="995.8032388663967" type="line"/>
      <point x="1087.421052631579" y="572.2493927125506" type="line"/>
      <point x="1025.4056680161943" y="572.2493927125506" type="line"/>
      <point x="965.034008097166" y="745.9708502024292" type="line"/>
    </contour>
  </outline>
</glyph>
<glyph name="F" format="2">
  <advance width="1214"/>
  <unicode hex="0046"/>
  <outline>
    <contour>
      <point x="28.753846153846155" y="0.0" type="line"/>
      <point x="28.753846153846155" y="58.27125506072875" type="line"/>
      <point x="179.63076923076923" y="93.27125506072875" type="line"/>
      <point x="181.63076923076923" y="764.5206477732793" type="line"/>
      <point x="179.63076923076923" y="1404.3101214574897" type="line"/>
      <point x="28.753846153846155" y="1438.3101214574897" type="line"/>
      <point x="28.753846153846155" y="1500.0" type="line"/>
      <point x="1166.2793522267207" y="1500.0" type="line"/>
      <point x="1166.2793522267207" y="1156.6615384615384" type="line"/>
      <point x="1090.9991902834008" y="1156.6615384615384" type="line"/>
      <point x="1005.5141700404859" y="1426.2024291497974" type="line"/>
      <point x="719.046963562753" y="1426.2024291497974" type="line"/>
      <point x="669.9076923076923" y="1400.3101214574897" type="line"/>
      <point x="676.4307692307692" y="770.5206477732793" type="line"/>
      <point x="678.4307692307692" y="93.27125506072875" type="line"/>
      <point x="833.3076923076923" y="59.27125506072875" type="line"/>
      <point x="833.3076923076923" y="0.0" type="line"/>
    </contour>
    <contour>
      <point x="425.5846153846154" y="756.5838056680162" type="line"/>
      <point x="425.5846153846154" y="819.0639676113361" type="line"/>
      <point x="965.9497975708501" y="827.8024291497976" type="line"/>
      <point x="1027.8882591093118" y="992.2744939271255" type="line"/>
      <point x="1088.6825910931175" y="992.2744939271255" type="line"/>
      <point x="1088.6825910931175" y="564.3975708502023" type="line"/>
      <point x="1027.8882591093118" y="564.3975708502023" type="line"/>
      <point x="965.9497975708501" y="747.8453441295546" type="line"/>
    </contour>
  </outline>
</glyph>
<glyph name="G" format="2">
  <advance width="1581"/>
  <unicode hex="0047"/>
  <outline>
    <contour>
      <point x="55.53846153846154" y="733.6307692307693" type="qcurve" smooth="yes"/>
      <point x="55.53846153846154" y="1126.753846153846"/>
      <point x="463.4663967611336" y="1517.7384615384615"/>
      <point x="827.5506072874495" y="1517.7384615384615" type="qcurve" smooth="yes"/>
      <point x="964.9635627530364" y="1517.7384615384615"/>
      <point x="1161.157085020243" y="1473.5044534412955"/>
      <point x="1238.6388663967612" y="1426.6437246963562" type="qcurve"/>
      <point x="1263.6445344129556" y="1493.0615384615385" type="line"/>
      <point x="1354.3692307692309" y="1493.0615384615385" type="line"/>
      <point x="1354.3692307692309" y="1053.446153846154" type="line"/>
      <point x="1261.0566801619434" y="1053.446153846154" type="line"/>
      <point x="1187.0226720647772" y="1330.7732793522266" type="line" smooth="yes"/>
      <point x="1125.6914979757087" y="1388.6842105263158"/>
      <point x="978.9117408906883" y="1449.2663967611336"/>
      <point x="882.0510121457489" y="1449.2663967611336" type="qcurve" smooth="yes"/>
      <point x="738.9716599190284" y="1449.2663967611336"/>
      <point x="590.3384615384615" y="1174.3076923076924"/>
      <point x="590.3384615384615" y="763.1805668016195" type="qcurve" smooth="yes"/>
      <point x="589.7076923076924" y="325.36356275303643"/>
      <point x="742.4461538461538" y="57.311740890688256"/>
      <point x="877.0931174089069" y="57.311740890688256" type="qcurve" smooth="yes"/>
      <point x="900.8461538461538" y="57.311740890688256"/>
      <point x="946.4769230769231" y="58.397570850202435"/>
      <point x="972.8615384615384" y="60.68097165991903" type="qcurve"/>
      <point x="972.8615384615384" y="594.7133603238866" type="line"/>
      <point x="856.876923076923" y="624.7133603238866" type="line"/>
      <point x="856.876923076923" y="697.9846153846154" type="line"/>
      <point x="1523.523076923077" y="697.9846153846154" type="line"/>
      <point x="1523.523076923077" y="624.7133603238866" type="line"/>
      <point x="1445.2923076923078" y="594.7133603238866" type="line"/>
      <point x="1445.2923076923078" y="178.81538461538463" type="line"/>
      <point x="1319.3846153846155" y="61.23076923076923"/>
      <point x="973.2769230769231" y="-24.47692307692308"/>
      <point x="770.5336032388665" y="-24.47692307692308" type="qcurve" smooth="yes"/>
      <point x="491.6923076923077" y="-24.47692307692308"/>
      <point x="55.53846153846154" y="329.33846153846156"/>
    </contour>
  </outline>
</glyph>
<glyph name="H" format="2">
  <advance width="1726"/>
  <unicode hex="0048"/>
  <outline>
    <contour>
      <point x="28.753846153846155" y="0.0" type="line"/>
      <point x="28.753846153846155" y="58.27125506072875" type="line"/>
      <point x="179.63076923076923" y="93.27125506072875" type="line"/>
      <point x="181.63076923076923" y="767.2461538461539" type="line"/>
      <point x="179.63076923076923" y="1404.3101214574897" type="line"/>
      <point x="28.753846153846155" y="1438.3101214574897" type="line"/>
      <point x="28.753846153846155" y="1500.0" type="line"/>
      <point x="821.3076923076923" y="1500.0" type="line"/>
      <point x="821.3076923076923" y="1438.3101214574897" type="line"/>
      <point x="672.4307692307692" y="1404.3101214574897" type="line"/>
      <point x="670.4307692307692" y="767.2461538461539" type="line"/>
      <point x="672.4307692307692" y="93.27125506072875" type="line"/>
      <point x="821.3076923076923" y="58.27125506072875" type="line"/>
      <point x="821.3076923076923" y="0.0" type="line"/>
    </contour>
    <contour>
      <point x="428.2153846153846" y="742.8016194331984" type="line"/>
      <point x="428.2153846153846" y="811.1983805668016" type="line"/>
      <point x="864.1384615384616" y="807.8785425101215" type="line"/>
      <point x="1313.9076923076923" y="811.1983805668016" type="line"/>
      <point x="1313.9076923076923" y="742.8016194331984" type="line"/>
      <point x="864.1384615384616" y="742.8016194331984" type="line"/>
    </contour>
    <contour>
      <point x="904.9692307692308" y="0.0" type="line"/>
      <point x="904.9692307692308" y="58.27125506072875" type="line"/>
      <point x="1053.8461538461538" y="93.27125506072875" type="line"/>
      <point x="1055.8461538461538" y="767.2461538461539" type="line"/>
      <point x="1053.8461538461538" y="1404.3101214574897" type="line"/>
      <point x="904.9692307692308" y="1438.3101214574897" type="line"/>
      <point x="904.9692307692308" y="1500.0" type="line"/>
      <point x="1697.523076923077" y="1500.0" type="line"/>
      <point x="1697.523076923077" y="1438.3101214574897" type="line"/>
      <point x="1546.6461538461538" y="1404.3101214574897" type="line"/>
      <point x="1544.6461538461538" y="767.2461538461539" type="line"/>
      <point x="1546.6461538461538" y="93.27125506072875" type="line"/>
      <point x="1697.523076923077" y="58.27125506072875" type="line"/>
      <point x="1697.523076923077" y="0.0" type="line"/>
    </contour>
  </outline>
</glyph>
<glyph name="I" format="2">
  <advance width="870"/>
  <unicode hex="0049"/>
  <outline>
    <contour>
      <point x="28.753846153846155" y="0.0" type="line"/>
      <point x="28.753846153846155" y="58.27125506072875" type="line"/>
      <point x="188.36923076923077" y="93.27125506072875" type="line"/>
      <point x="190.36923076923077" y="754.0" type="line"/>
      <point x="188.36923076923077" y="1404.3101214574897" type="line"/>
      <point x="28.753846153846155" y="1438.3101214574897" type="line"/>
      <point x="28.753846153846155" y="1500.0" type="line"/>
      <point x="841.4153846153846" y="1500.0" type="line"/>
      <point x="841.4153846153846" y="1438.3101214574897" type="line"/>
      <point x="681.8" y="1404.3101214574897" type="line"/>
      <point x="679.8" y="754.0" type="line"/>
      <point x="681.8" y="93.27125506072875" type="line"/>
      <point x="841.4153846153846" y="58.27125506072875" type="line"/>
      <point x="841.4153846153846" y="0.0" type="line"/>
    </contour>
  </outline>
</glyph>
<glyph name="K" format="2">
  <advance width="1627"/>
  <unicode hex="004B"/>
  <outline>
    <contour>
      <point x="28.753846153846155" y="0.0" type="line"/>
      <point x="28.753846153846155" y="58.27125506072875" type="line"/>
      <point x="179.63076923076923" y="93.27125506072875" type="line"/>
      <point x="181.63076923076923" y="754.0" type="line"/>
      <point x="179.63076923076923" y="1404.3101214574897" type="line"/>
      <point x="28.753846153846155" y="1438.3101214574897" type="line"/>
      <point x="28.753846153846155" y="1500.0" type="line"/>
      <point x="827.6153846153846" y="1500.0" type="line"/>
      <point x="827.6153846153846" y="1438.3101214574897" type="line"/>
      <point x="671.8" y="1404.3101214574897" type="line"/>
      <point x="667.9076923076923" y="754.0" type="line"/>
      <point x="671.8" y="93.27125506072875" type="line"/>
      <point x="801.3076923076923" y="58.27125506072875" type="line"/>
      <point x="801.3076923076923" y="0.0" type="line"/>
    </contour>
    <contour>
      <point x="543.5230769230769" y="472.88663967611336" type="line"/>
      <point x="531.6307692307693" y="540.3821862348178" type="line"/>
      <point x="1237.765991902834" y="1409.4437246963564" type="line"/>
      <point x="1078.7336032388664" y="1439.3101214574897" type="line"/>
      <point x="1078.7336032388664" y="1500.0" type="line"/>
      <point x="1542.6437246963562" y="1500.0" type="line"/>
      <point x="1542.6437246963562" y="1439.3101214574897" type="line"/>
      <point x="1338.9797570850203" y="1408.8331983805667" type="line"/>
      <point x="969.1214574898785" y="943.421052631579" type="line"/>
      <point x="908.7457489878543" y="876.5222672064777" type="line"/>
    </contour>
    <contour>
      <point x="742.6089068825911" y="726.5408906882591" type="line"/>
      <point x="1076" y="1117" type="line"/>
      <point x="1564.8615384615384" y="94.79757085020243" type="line"/>
      <point x="1657.4412955465586" y="58.27125506072875" type="line"/>
      <point x="1657.4412955465586" y="0.0" type="line"/>
      <point x="943.9554655870446" y="0.0" type="line"/>
      <point x="943.9554655870446" y="58.27125506072875" type="line"/>
      <point x="1030.348987854251" y="93.27125506072875" type="line"/>
    </contour>
  </outline>
</glyph>
<glyph name="N" format="2">
  <advance width="1469"/>
  <unicode hex="004E"/>
  <outline>
    <contour>
      <point x="28.753846153846155" y="0.0" type="line"/>
      <point x="28.753846153846155" y="58.27125506072875" type="line"/>
      <point x="195.59595141700404" y="95.10283400809716" type="line"/>
      <point x="198.8574898785425" y="753.3692307692307" type="line"/>
      <point x="196.8574898785425" y="1403.4785425101213" type="line"/>
      <point x="28.753846153846155" y="1439.3101214574897" type="line"/>
      <point x="28.753846153846155" y="1500.0" type="line"/>
      <point x="676.2137651821863" y="1500.0" type="line"/>
      <point x="954.1943319838057" y="936.2056680161943" type="line"/>
      <point x="1194.5336032388664" y="433.4153846153846" type="line"/>
      <point x="1192.2720647773278" y="804.2615384615384" type="line"/>
      <point x="1187.7489878542508" y="1403.4785425101213" type="line"/>
      <point x="1012.6898785425101" y="1439.3101214574897" type="line"/>
      <point x="1012.6898785425101" y="1500.0" type="line"/>
      <point x="1450.5668016194334" y="1500.0" type="line"/>
      <point x="1450.5668016194334" y="1439.3101214574897" type="line"/>
      <point x="1278.9716599190283" y="1403.4785425101213" type="line"/>
      <point x="1275.7101214574898" y="778.3692307692307" type="line"/>
      <point x="1274.2331983805668" y="0.0" type="line"/>
      <point x="868.0105263157894" y="0.0" type="line"/>
      <point x="551.1514170040485" y="655.6526315789474" type="line"/>
      <point x="276.61214574898787" y="1226.7643724696356" type="line"/>
      <point x="278.61214574898787" y="692.8" type="line"/>
      <point x="283.765991902834" y="95.10283400809716" type="line"/>
      <point x="451.7368421052632" y="58.27125506072875" type="line"/>
      <point x="451.7368421052632" y="0.0" type="line"/>
    </contour>
  </outline>
</glyph>
<glyph name="Q" format="2">
  <advance width="1674"/>
  <unicode hex="0051"/>
  <outline>
    <contour>
      <point x="55.53846153846154" y="740.8834008097166" type="qcurve" smooth="yes"/>
      <point x="55.53846153846154" y="1089.1384615384616"/>
      <point x="483.9052631578947" y="1526.3692307692309"/>
      <point x="846.6615384615385" y="1526.3692307692309" type="qcurve" smooth="yes"/>
      <point x="1210.4178137651822" y="1526.3692307692309"/>
      <point x="1637.7846153846153" y="1115.6153846153845"/>
      <point x="1637.7846153846153" y="758.0202429149798" type="qcurve" smooth="yes"/>
      <point x="1637.7846153846153" y="436.2874493927126"/>
      <point x="1224.3514170040487" y="-12.993522267206478"/>
      <point x="852.8825910931174" y="-12.993522267206478" type="qcurve" smooth="yes"/>
      <point x="508.08016194331987" y="-12.993522267206478"/>
      <point x="55.53846153846154" y="393.9433198380567"/>
    </contour>
    <contour>
      <point x="589.3384615384615" y="786.4882591093118" type="qcurve" smooth="yes"/>
      <point x="588.0971659919029" y="385.4728744939271"/>
      <point x="740.5595141700404" y="70.49878542510122"/>
      <point x="846.8825910931174" y="70.49878542510122" type="qcurve" smooth="yes"/>
      <point x="965.2728744939271" y="70.49878542510122"/>
      <point x="1099.5951417004048" y="341.9141700404858"/>
      <point x="1098.9846153846154" y="763.1797570850202" type="qcurve" smooth="yes"/>
      <point x="1097.7433198380568" y="1151.1222672064775"/>
      <point x="953.9846153846154" y="1460.5133603238867"/>
      <point x="845.0307692307692" y="1460.5133603238867" type="qcurve" smooth="yes"/>
      <point x="729.123076923077" y="1460.5133603238867"/>
      <point x="589.948987854251" y="1189.3692307692309"/>
    </contour>
    <contour>
      <point x="188.9854251012146" y="-405.3400809716599" type="qcurve"/>
      <point x="151.46153846153845" y="-386.83076923076925" type="line"/>
      <point x="206.77651821862347" y="-247.07854251012145"/>
      <point x="435.37408906882587" y="-67.80647773279352"/>
      <point x="530.2914979757086" y="-49.7497975708502" type="qcurve"/>
      <point x="891.2429149797571" y="333.3133603238866" type="line"/>
      <point x="933.6947368421053" y="275.52226720647775" type="line"/>
      <point x="603.0331983805668" y="-49.57004048582996" type="line"/>
      <point x="1177.2016194331982" y="-170.57004048582996" type="line"/>
      <point x="1346.915789473684" y="-207.0161943319838"/>
      <point x="1503.3295546558704" y="-153.15222672064777"/>
      <point x="1548.3643724696356" y="-46.75465587044535" type="qcurve"/>
      <point x="1584.995951417004" y="-56.944129554655866" type="line"/>
      <point x="1549.5886639676114" y="-219.63643724696357"/>
      <point x="1337.2" y="-473.6923076923077"/>
      <point x="1226.3190283400809" y="-474.0364372469636" type="qcurve"/>
      <point x="494.0615384615385" y="-296.4315789473684" type="line"/>
      <point x="349.8097165991903" y="-284.3052631578948"/>
      <point x="258.55384615384617" y="-314.1546558704453"/>
    </contour>
  </outline>
</glyph>
<glyph name="T" format="2">
  <advance width="1320"/>
  <unicode hex="0054"/>
  <outline>
    <contour>
      <point x="24.129554655870447" y="1127.2769230769231" type="line"/>
      <point x="24.129554655870447" y="1500.0" type="line"/>
      <point x="1295.608906882591" y="1500.0" type="line"/>
      <point x="1295.608906882591" y="1127.2769230769231" type="line"/>
      <point x="1230.6574898785425" y="1127.2769230769231" type="line"/>
      <point x="1115.7141700404857" y="1425.6121457489878" type="line"/>
      <point x="936.0923076923077" y="1425.6121457489878" type="line"/>
      <point x="901.6923076923077" y="1414.6582995951417" type="line"/>
      <point x="903.9538461538461" y="754.0" type="line"/>
      <point x="904.9538461538461" y="93.27125506072875" type="line"/>
      <point x="1064.5692307692307" y="58.27125506072875" type="line"/>
      <point x="1064.5692307692307" y="0.0" type="line"/>
      <point x="251.90769230769232" y="0.0" type="line"/>
      <point x="251.90769230769232" y="58.27125506072875" type="line"/>
      <point x="411.5230769230769" y="93.27125506072875" type="line"/>
      <point x="413.5230769230769" y="754.0" type="line"/>
      <point x="417.04615384615386" y="1414.6582995951417" type="line"/>
      <point x="384.33846153846156" y="1425.6121457489878" type="line"/>
      <point x="197.34736842105264" y="1425.6121457489878" type="line"/>
      <point x="88.08097165991904" y="1127.2769230769231" type="line"/>
    </contour>
  </outline>
</glyph>
<glyph name="V" format="2">
  <advance width="1467"/>
  <unicode hex="0056"/>
  <outline>
    <contour>
      <point x="-2.5344129554655868" y="1440.5716599190282" type="line"/>
      <point x="-2.5344129554655868" y="1500.0" type="line"/>
      <point x="775.6348178137652" y="1500.0" type="line"/>
      <point x="775.6348178137652" y="1440.5716599190282" type="line"/>
      <point x="636.2704453441295" y="1406.5716599190282" type="line"/>
      <point x="786.2056680161944" y="861.9295546558704" type="line"/>
      <point x="949.4655870445345" y="317.0777327935223" type="line"/>
      <point x="1079.9643724696357" y="829.1093117408907" type="line"/>
      <point x="1221.0364372469635" y="1400.7514170040486" type="line"/>
      <point x="1049.2453441295547" y="1440.5716599190282" type="line"/>
      <point x="1049.2453441295547" y="1500.0" type="line"/>
      <point x="1465.6242914979757" y="1500.0" type="line"/>
      <point x="1465.6242914979757" y="1440.5716599190282" type="line"/>
      <point x="1305.0380566801618" y="1404.17004048583" type="line"/>
      <point x="1151.8753036437247" y="829.8761133603239" type="line"/>
      <point x="950.3805668016195" y="1.2615384615384615" type="line"/>
      <point x="514.9805668016194" y="1.2615384615384615" type="line"/>
      <point x="294.9927125506073" y="782.582995951417" type="line"/>
      <point x="116.03967611336031" y="1406.5716599190282" type="line"/>
    </contour>
  </outline>
</glyph>
<glyph name="W" format="2">
  <advance width="2166"/>
  <unicode hex="0057"/>
  <outline>
    <contour>
      <point x="-3.3894736842105253" y="1440.5716599190282" type="line"/>
      <point x="-3.3894736842105253" y="1500.0" type="line"/>
      <point x="730.3643724696357" y="1500.0" type="line"/>
      <point x="730.3643724696357" y="1440.5716599190282" type="line"/>
      <point x="617.4963562753037" y="1406.5716599190282" type="line"/>
      <point x="755.9400809716599" y="847.3781376518219" type="line"/>
      <point x="878.1165991902833" y="375.37246963562757" type="line"/>
      <point x="1006.6566801619433" y="849.9902834008097" type="line"/>
      <point x="1089.9271255060728" y="1173.7910931174088" type="line"/>
      <point x="1159.6542510121456" y="1089.6267206477733" type="line"/>
      <point x="1062.3465587044534" y="766.7076923076924" type="line"/>
      <point x="874.4534412955466" y="1.2615384615384615" type="line"/>
      <point x="472.56194331983806" y="1.2615384615384615" type="line"/>
      <point x="289.3352226720648" y="747.3538461538461" type="line"/>
      <point x="117.79514170040486" y="1406.5716599190282" type="line"/>
    </contour>
    <contour>
      <point x="856.4858299595141" y="1442.3101214574897" type="line"/>
      <point x="856.4858299595141" y="1500.0" type="line"/>
      <point x="1542.7627530364373" y="1500.0" type="line"/>
      <point x="1542.7627530364373" y="1442.3101214574897" type="line"/>
      <point x="1423.868825910931" y="1408.3101214574897" type="line"/>
      <point x="1559.8761133603239" y="857.8315789473684" type="line"/>
      <point x="1684.4356275303644" y="394.07287449392715" type="line"/>
      <point x="1781.1668016194333" y="835.7846153846154" type="line"/>
      <point x="1909.4331983805666" y="1397.3125506072874" type="line"/>
      <point x="1741.931983805668" y="1440.5716599190282" type="line"/>
      <point x="1741.931983805668" y="1500.0" type="line"/>
      <point x="2163.8971659919025" y="1500.0" type="line"/>
      <point x="2163.8971659919025" y="1440.5716599190282" type="line"/>
      <point x="1984.5684210526315" y="1402.2777327935223" type="line"/>
      <point x="1855.9935222672063" y="828.3886639676114" type="line"/>
      <point x="1687.0113360323887" y="1.2615384615384615" type="line"/>
      <point x="1295.7821862348178" y="1.2615384615384615" type="line"/>
      <point x="1135.9222672064777" y="724.7959514170041" type="line"/>
      <point x="953.4291497975709" y="1408.3101214574897" type="line"/>
    </contour>
  </outline>
</glyph>
<glyph name="bracketleft" format="2">
  <advance width="683"/>
  <unicode hex="005B"/>
  <outline>
    <contour>
      <point x="91.16923076923077" y="508.0" type="line"/>
      <point x="82.95384615384616" y="1452.774898785425" type="line"/>
      <point x="68.36923076923077" y="1468.9902834008096" type="line"/>
      <point x="68.36923076923077" y="1500.0" type="line"/>
      <point x="658.0615384615385" y="1500.0" type="line"/>
      <point x="658.0615384615385" y="1467.9902834008096" type="line"/>
      <point x="482.5692307692308" y="1452.774898785425" type="line"/>
      <point x="476.87692307692305" y="508.0" type="line"/>
      <point x="482.5692307692308" y="-224.6008097165992" type="line"/>
      <point x="658.0615384615385" y="-239.8161943319838" type="line"/>
      <point x="658.0615384615385" y="-271.21538461538466" type="line"/>
      <point x="68.36923076923077" y="-271.21538461538466" type="line"/>
      <point x="68.36923076923077" y="-240.8161943319838" type="line"/>
      <point x="82.95384615384616" y="-224.6008097165992" type="line"/>
    </contour>
  </outline>
</glyph>
<glyph name="asciicircum" format="2">
  <advance width="1260"/>
  <unicode hex="005E"/>
  <outline>
    <contour>
      <point x="111.90769230769232" y="937.7773279352227" type="line"/>
      <point x="150.302024291498" y="992.0631578947368"/>
      <point x="605.0769230769231" y="1511.0923076923077"/>
      <point x="613.5692307692308" y="1519.5846153846153" type="qcurve"/>
      <point x="625.5846153846154" y="1511.0923076923077"/>
      <point x="1102.3748987854253" y="990.5603238866397"/>
      <point x="1147.6615384615384" y="938.1668016194332" type="qcurve"/>
      <point x="1070.221862348178" y="881.0" type="line"/>
      <point x="981.9886639676114" y="963.0906882591094"/>
      <point x="619.8461538461538" y="1239.246153846154"/>
      <point x="614.3076923076923" y="1243.676923076923" type="qcurve"/>
      <point x="607.2923076923076" y="1236.6615384615384"/>
      <point x="273.5692307692308" y="966.7797570850203"/>
      <point x="189.47530364372471" y="881.1076923076923" type="qcurve"/>
    </contour>
  </outline>
</glyph>
<glyph name="a" format="2">
  <advance width="1330"/>
  <unicode hex="0061"/>
  <outline>
    <contour>
      <point x="18.092307692307692" y="262.2307692307692" type="qcurve" smooth="yes"/>
      <point x="18.092307692307692" y="416.1384615384615"/>
      <point x="321.83076923076925" y="576.8"/>
      <point x="707.3384615384615" y="615.4153846153846" type="qcurve"/>
      <point x="714.0769230769231" y="547.5773279352226" type="line"/>
      <point x="582.3076923076923" y="527.8914979757085"/>
      <point x="465.36923076923074" y="392.72226720647774"/>
      <point x="467.36923076923074" y="286.6890688259109" type="qcurve" smooth="yes"/>
      <point x="468.36923076923074" y="190.03238866396762"/>
      <point x="522.8550607287449" y="103.78218623481781"/>
      <point x="590.6923076923077" y="103.78218623481781" type="qcurve" smooth="yes"/>
      <point x="634.0153846153846" y="103.78218623481781"/>
      <point x="689.8461538461538" y="155.47773279352225"/>
      <point x="698.7538461538461" y="211.18056680161942" type="qcurve"/>
      <point x="701.3846153846154" y="578.4493927125505" type="line" smooth="yes"/>
      <point x="703.0153846153846" y="760.2825910931174"/>
      <point x="588.9627530364372" y="916.5263157894736"/>
      <point x="478.16275303643727" y="916.5263157894736" type="qcurve" smooth="yes"/>
      <point x="432.51659919028344" y="916.5263157894736"/>
      <point x="324.37004048583" y="879.382995951417"/>
      <point x="325.6" y="850.4858299595143" type="qcurve"/>
      <point x="350.6923076923077" y="834.2242914979757"/>
      <point x="387.46153846153845" y="783.1206477732793"/>
      <point x="388.5692307692308" y="745.6591093117408" type="qcurve" smooth="yes"/>
      <point x="390.15384615384613" y="690.1821862348178"/>
      <point x="325.9384615384615" y="627.7514170040486"/>
      <point x="263.61538461538464" y="622.7514170040486" type="qcurve" smooth="yes"/>
      <point x="197.66153846153847" y="617.7514170040486"/>
      <point x="106.55384615384615" y="685.4"/>
      <point x="106.55384615384615" y="756.723076923077" type="qcurve" smooth="yes"/>
      <point x="106.55384615384615" y="861.0"/>
      <point x="376.6" y="1025.2769230769231"/>
      <point x="645.0" y="1025.2769230769231" type="qcurve" smooth="yes"/>
      <point x="919.9076923076923" y="1025.2769230769231"/>
      <point x="1173.553846153846" y="838.4769230769231"/>
      <point x="1176.8153846153846" y="646.5692307692308" type="qcurve" smooth="yes"/>
      <point x="1182.9692307692308" y="98.85829959514172" type="line"/>
      <point x="1312.523076923077" y="63.85829959514171" type="line"/>
      <point x="1312.523076923077" y="0.0" type="line"/>
      <point x="750.8307692307692" y="0.0" type="line"/>
      <point x="715.2307692307693" y="40.184615384615384" type="line"/>
      <point x="712.2769230769231" y="95.16923076923077" type="line"/>
      <point x="673.4769230769231" y="45.215384615384615"/>
      <point x="523.2307692307693" y="-17.0"/>
      <point x="393.9076923076923" y="-17.0" type="qcurve" smooth="yes"/>
      <point x="191.43076923076922" y="-17.0"/>
      <point x="18.092307692307692" y="126.96923076923076"/>
    </contour>
  </outline>
</glyph>
<glyph name="j" format="2">
  <advance width="772"/>
  <unicode hex="006A"/>
  <outline>
    <contour>
      <point x="9.446153846153845" y="-467.6461538461538" type="qcurve"/>
      <point x="5.661538461538463" y="-380.6048582995951" type="line"/>
      <point x="79.33846153846153" y="-379.4971659919029"/>
      <point x="161.2923076923077" y="-268.451012145749"/>
      <point x="161.2923076923077" y="-168.3433198380567" type="qcurve" smooth="yes"/>
      <point x="162.81538461538463" y="507.84615384615387" type="line"/>
      <point x="161.44615384615383" y="873.2412955465587" type="line"/>
      <point x="26.06153846153846" y="906.3951417004049" type="line"/>
      <point x="26.06153846153846" y="971.4307692307692" type="line"/>
      <point x="522.4615384615385" y="1005.9538461538461" type="line"/>
      <point x="591.2615384615385" y="1005.9538461538461" type="line"/>
      <point x="641.8307692307692" y="954.4307692307692" type="line"/>
      <point x="633.3076923076923" y="507.84615384615387" type="line"/>
      <point x="638.8307692307692" y="-83.70769230769231" type="line" smooth="yes"/>
      <point x="640.4615384615385" y="-269.0153846153846"/>
      <point x="357.5692307692308" y="-476.7076923076923"/>
    </contour>
    <contour>
      <point x="109.8" y="1280.4307692307693" type="qcurve" smooth="yes"/>
      <point x="109.8" y="1353.076923076923"/>
      <point x="252.75384615384615" y="1454.553846153846"/>
      <point x="379.66153846153844" y="1454.553846153846" type="qcurve" smooth="yes"/>
      <point x="503.0923076923077" y="1454.553846153846"/>
      <point x="655.1538461538462" y="1357.6"/>
      <point x="654.1538461538462" y="1280.4307692307693" type="qcurve" smooth="yes"/>
      <point x="654.1538461538462" y="1213.1538461538462"/>
      <point x="510.5692307692308" y="1117.676923076923"/>
      <point x="381.66153846153844" y="1117.676923076923" type="qcurve" smooth="yes"/>
      <point x="259.2307692307692" y="1117.676923076923"/>
      <point x="109.8" y="1214.6307692307691"/>
    </contour>
  </outline>
</glyph>
<glyph name="l" format="2">
  <advance width="775"/>
  <unicode hex="006C"/>
  <outline>
    <contour>
      <point x="38.38461538461539" y="0.0" type="line"/>
      <point x="38.38461538461539" y="63.85829959514171" type="line"/>
      <point x="162.09230769230768" y="98.85829959514172" type="line"/>
      <point x="164.09230769230768" y="527.0" type="line"/>
      <point x="162.09230769230768" y="1395.0461538461539" type="line"/>
      <point x="26.276923076923076" y="1431.3538461538462" type="line"/>
      <point x="26.276923076923076" y="1500.0" type="line"/>
      <point x="558.3076923076923" y="1523.2769230769231" type="line"/>
      <point x="589.0461538461539" y="1522.6461538461538" type="line"/>
      <point x="641.6307692307693" y="1476.2769230769231" type="line"/>
      <point x="639.6307692307693" y="527.0" type="line"/>
      <point x="641.6307692307693" y="98.85829959514172" type="line"/>
      <point x="764.123076923077" y="63.85829959514171" type="line"/>
      <point x="764.123076923077" y="0.0" type="line"/>
    </contour>
  </outline>
</glyph>
<glyph name="o" format="2">
  <advance width="1417"/>
  <unicode hex="006F"/>
  <outline>
    <contour>
      <point x="41.90769230769231" y="499.7692307692308" type="qcurve" smooth="yes"/>
      <point x="41.90769230769231" y="745.2461538461539"/>
      <point x="411.4153846153846" y="1025.5384615384614"/>
      <point x="706.5538461538462" y="1025.5384615384614" type="qcurve" smooth="yes"/>
      <point x="1002.0615384615385" y="1025.5384615384614"/>
      <point x="1375.5692307692307" y="757.4153846153846"/>
      <point x="1375.5692307692307" y="505.7692307692308" type="qcurve" smooth="yes"/>
      <point x="1375.5692307692307" y="260.03076923076924"/>
      <point x="1009.6923076923077" y="-25.73846153846154"/>
      <point x="713.2923076923076" y="-25.73846153846154" type="qcurve" smooth="yes"/>
      <point x="416.5230769230769" y="-25.73846153846154"/>
      <point x="41.90769230769231" y="240.44615384615383"/>
    </contour>
    <contour>
      <point x="546.0769230769231" y="516.5805668016195" type="qcurve" smooth="yes"/>
      <point x="546.4461538461538" y="237.32631578947368"/>
      <point x="631.6307692307693" y="36.12874493927126"/>
      <point x="704.5538461538462" y="36.12874493927126" type="qcurve" smooth="yes"/>
      <point x="783.5846153846154" y="36.12874493927126"/>
      <point x="869.8153846153846" y="210.3846153846154"/>
      <point x="869.1846153846154" y="499.14170040485834" type="qcurve" smooth="yes"/>
      <point x="869.1846153846154" y="772.982995951417"/>
      <point x="779.2153846153847" y="952.025910931174"/>
      <point x="706.5538461538462" y="952.025910931174" type="qcurve" smooth="yes"/>
      <point x="627.7846153846153" y="952.025910931174"/>
      <point x="545.7076923076924" y="786.8963562753037"/>
    </contour>
  </outline>
</glyph>
<glyph name="v" format="2">
  <advance width="1330"/>
  <unicode hex="0076"/>
  <outline>
    <contour>
      <point x="-11.353846153846153" y="923.778947368421" type="line"/>
      <point x="-11.353846153846153" y="999.5384615384615" type="line"/>
      <point x="738.4769230769231" y="999.5384615384615" type="line"/>
      <point x="738.4769230769231" y="923.778947368421" type="line"/>
      <point x="628.5692307692308" y="887.778947368421" type="line"/>
      <point x="744.34008097166" y="576.0769230769231" type="line"/>
      <point x="867.7417004048583" y="284.3060728744939" type="line"/>
      <point x="975.5384615384615" y="573.0267206477733" type="line"/>
      <point x="1082.4437246963564" y="882.6534412955466" type="line"/>
      <point x="940.5748987854251" y="923.778947368421" type="line"/>
      <point x="940.5748987854251" y="999.5384615384615" type="line"/>
      <point x="1334.2" y="999.5384615384615" type="line"/>
      <point x="1334.2" y="923.778947368421" type="line"/>
      <point x="1182.468016194332" y="885.1765182186235" type="line"/>
      <point x="1057.5481781376518" y="563.3692307692307" type="line"/>
      <point x="867.2331983805668" y="1.2615384615384615" type="line"/>
      <point x="458.4307692307692" y="1.2615384615384615" type="line"/>
      <point x="281.01700404858303" y="464.18461538461537" type="line"/>
      <point x="109.76923076923077" y="888.778947368421" type="line"/>
    </contour>
  </outline>
</glyph>
<glyph name="w" format="2">
  <advance width="1872"/>
  <unicode hex="0077"/>
  <outline>
    <contour>
      <point x="-11.353846153846153" y="923.778947368421" type="line"/>
      <point x="-11.353846153846153" y="999.5384615384615" type="line"/>
      <point x="657.0615384615385" y="999.5384615384615" type="line"/>
      <point x="657.0615384615385" y="923.778947368421" type="line"/>
      <point x="567.3076923076923" y="888.778947368421" type="line"/>
      <point x="657.5263157894738" y="578.5538461538462" type="line"/>
      <point x="745.0356275303644" y="276.8307692307692" type="line"/>
      <point x="820.4170040485831" y="500.8" type="line"/>
      <point x="922.6291497975708" y="813.4477732793522" type="line"/>
      <point x="996.0453441295547" y="774.2923076923076" type="line"/>
      <point x="896.4145748987854" y="480.44615384615383" type="line"/>
      <point x="754.6607287449392" y="1.2615384615384615" type="line"/>
      <point x="353.38461538461536" y="1.2615384615384615" type="line"/>
      <point x="206.79919028340083" y="514.6" type="line"/>
      <point x="95.44615384615385" y="888.778947368421" type="line"/>
    </contour>
    <contour>
      <point x="762.6153846153846" y="923.778947368421" type="line"/>
      <point x="762.6153846153846" y="999.5384615384615" type="line"/>
      <point x="1388.553846153846" y="999.5384615384615" type="line"/>
      <point x="1388.553846153846" y="923.778947368421" type="line"/>
      <point x="1307.2769230769231" y="888.778947368421" type="line"/>
      <point x="1393.9668016194332" y="571.9076923076923" type="line"/>
      <point x="1475.62995951417" y="291.2" type="line"/>
      <point x="1545.97975708502" y="549.3230769230769" type="line"/>
      <point x="1634.5676113360323" y="879.8655870445344" type="line"/>
      <point x="1502.9384615384615" y="923.778947368421" type="line"/>
      <point x="1502.9384615384615" y="999.5384615384615" type="line"/>
      <point x="1863.0923076923077" y="999.5384615384615" type="line"/>
      <point x="1863.0923076923077" y="923.778947368421" type="line"/>
      <point x="1730.0453441295547" y="881.7578947368421" type="line"/>
      <point x="1638.242105263158" y="542.1384615384616" type="line"/>
      <point x="1501.4526315789474" y="1.2615384615384615" type="line"/>
      <point x="1101.0923076923077" y="1.2615384615384615" type="line"/>
      <point x="951.9141700404858" y="540.4769230769231" type="line"/>
      <point x="859.4153846153846" y="888.778947368421" type="line"/>
    </contour>
  </outline>
</glyph>
<glyph name="x" format="2">
  <advance width="1263"/>
  <unicode hex="0078"/>
  <outline>
    <contour>
      <point x="2.2769230769230777" y="0.0" type="line"/>
      <point x="2.2769230769230777" y="65.75060728744938" type="line"/>
      <point x="131.90769230769232" y="100.48906882591095" type="line"/>
      <point x="499.2793522267207" y="525.0161943319838" type="line"/>
      <point x="644.8866396761133" y="519.4412955465586" type="line"/>
      <point x="944.6186234817814" y="892.5376518218624" type="line"/>
      <point x="838.5878542510121" y="923.1684210526315" type="line"/>
      <point x="838.5878542510121" y="999.5384615384615" type="line"/>
      <point x="1189.9538461538461" y="999.5384615384615" type="line"/>
      <point x="1189.9538461538461" y="923.1684210526315" type="line"/>
      <point x="1067.1692307692308" y="889.42995951417" type="line"/>
      <point x="759.1198380566801" y="511.31821862348176" type="line"/>
      <point x="608.5271255060728" y="512.7740890688259" type="line"/>
      <point x="267.9813765182186" y="101.38137651821862" type="line"/>
      <point x="375.85829959514166" y="65.75060728744938" type="line"/>
      <point x="375.85829959514166" y="0.0" type="line"/>
    </contour>
    <contour>
      <point x="3.1538461538461537" y="923.1684210526315" type="line"/>
      <point x="3.1538461538461537" y="999.5384615384615" type="line"/>
      <point x="705.6769230769231" y="999.5384615384615" type="line"/>
      <point x="705.6769230769231" y="923.1684210526315" type="line"/>
      <point x="643.9692307692308" y="886.1684210526315" type="line"/>
      <point x="859.4105263157894" y="563.7838056680162" type="line"/>
      <point x="1155.4307692307693" y="101.75060728744938" type="line"/>
      <point x="1263.8615384615384" y="65.75060728744938" type="line"/>
      <point x="1263.8615384615384" y="0.0" type="line"/>
      <point x="520.0923076923077" y="0.0" type="line"/>
      <point x="520.0923076923077" y="65.75060728744938" type="line"/>
      <point x="600.7384615384615" y="100.75060728744938" type="line"/>
      <point x="375.5935222672065" y="464.5627530364373" type="line"/>
      <point x="91.43076923076923" y="888.1684210526315" type="line"/>
    </contour>
  </outline>
</glyph>
<glyph name="y" format="2">
  <advance width="1325"/>
  <unicode hex="0079"/>
  <outline>
    <contour>
      <point x="-15.138461538461538" y="923.1684210526315" type="line"/>
      <point x="-15.138461538461538" y="999.5384615384615" type="line"/>
      <point x="734.6923076923077" y="999.5384615384615" type="line"/>
      <point x="734.6923076923077" y="923.1684210526315" type="line"/>
      <point x="624.1538461538462" y="887.1684210526315" type="line"/>
      <point x="739.3141700404859" y="575.7311740890688" type="line"/>
      <point x="855.1668016194333" y="275.8599190283401" type="line"/>
      <point x="956.9206477732794" y="571.5206477732793" type="line"/>
      <point x="1063.540890688259" y="882.6534412955466" type="line"/>
      <point x="927.7570850202429" y="923.1684210526315" type="line"/>
      <point x="927.7570850202429" y="999.5384615384615" type="line"/>
      <point x="1315.2769230769231" y="999.5384615384615" type="line"/>
      <point x="1315.2769230769231" y="923.1684210526315" type="line"/>
      <point x="1166.353036437247" y="885.1765182186235" type="line"/>
      <point x="1042.6137651821864" y="563.3894736842105" type="line"/>
      <point x="844.4615384615385" y="-8.92307692307692" type="line" smooth="yes"/>
      <point x="750.3927125506073" y="-276.212955465587"/>
      <point x="372.24615384615385" y="-492.0615384615385"/>
      <point x="184.03076923076924" y="-492.0615384615385" type="qcurve"/>
      <point x="7.692307692307693" y="-427.0153846153846" type="line"/>
      <point x="7.692307692307693" y="-350.0145748987854" type="line"/>
      <point x="200.55141700404857" y="-357.0145748987854" type="line" smooth="yes"/>
      <point x="390.7975708502024" y="-361.0145748987854"/>
      <point x="600.2874493927126" y="-224.8744939271255"/>
      <point x="664.0607287449393" y="-116.09392712550607" type="qcurve" smooth="yes"/>
      <point x="666.7595141700405" y="-129.03076923076924" type="line"/>
      <point x="482.4" y="-45.41538461538461" type="line"/>
      <point x="274.77004048582995" y="467.2574898785425" type="line"/>
      <point x="105.35384615384615" y="888.1684210526315" type="line"/>
    </contour>
  </outline>
</glyph>
<glyph name="braceleft" format="2">
  <advance width="745"/>
  <unicode hex="007B"/>
  <outline>
    <contour>
      <point x="37.69230769230769" y="642.6477732793522" type="line"/>
      <point x="37.69230769230769" y="682.0817813765182" type="line"/>
      <point x="107.76923076923077" y="685.7740890688259" type="line" smooth="yes"/>
      <point x="169.23076923076923" y="689.251012145749"/>
      <point x="265.73846153846154" y="752.7846153846153"/>
      <point x="265.73846153846154" y="829.9384615384615" type="qcurve" smooth="yes"/>
      <point x="265.73846153846154" y="915.3230769230769"/>
      <point x="90.50769230769231" y="1122.1384615384616"/>
      <point x="90.50769230769231" y="1230.0461538461539" type="qcurve" smooth="yes"/>
      <point x="90.50769230769231" y="1367.6"/>
      <point x="290.46153846153845" y="1510.0"/>
      <point x="412.36923076923074" y="1510.0" type="qcurve" smooth="yes"/>
      <point x="451.7076923076923" y="1510.0"/>
      <point x="704.7740890688259" y="1503.0"/>
      <point x="731.2307692307693" y="1496.9473684210527" type="qcurve"/>
      <point x="731.2307692307693" y="1466.7838056680162" type="line"/>
      <point x="704.7384615384616" y="1470.9206477732794"/>
      <point x="663.6307692307693" y="1471.8364372469634"/>
      <point x="637.5076923076923" y="1471.8364372469634" type="qcurve" smooth="yes"/>
      <point x="550.4769230769231" y="1471.8364372469634"/>
      <point x="475.73846153846154" y="1382.8914979757085"/>
      <point x="475.73846153846154" y="1283.5336032388664" type="qcurve" smooth="yes"/>
      <point x="475.73846153846154" y="1181.068016194332"/>
      <point x="633.9846153846154" y="969.6008097165992"/>
      <point x="633.9846153846154" y="890.6866396761134" type="qcurve" smooth="yes"/>
      <point x="633.9846153846154" y="794.8518218623482"/>
      <point x="515.6987854251013" y="702.0526315789474"/>
      <point x="390.6137651821862" y="678.1805668016194" type="qcurve"/>
      <point x="520.3327935222671" y="655.2210526315789"/>
      <point x="633.9846153846154" y="556.331983805668"/>
      <point x="633.9846153846154" y="476.8898785425101" type="qcurve" smooth="yes"/>
      <point x="633.9846153846154" y="373.468016194332"/>
      <point x="478.3538461538462" y="96.70202429149796"/>
      <point x="478.3538461538462" y="-9.809716599190303" type="qcurve" smooth="yes"/>
      <point x="478.3538461538462" y="-116.73684210526316"/>
      <point x="547.1538461538462" y="-219.35870445344128"/>
      <point x="634.9230769230769" y="-219.35870445344128" type="qcurve" smooth="yes"/>
      <point x="661.6769230769231" y="-219.35870445344128"/>
      <point x="695.6518218623481" y="-218.1578947368421"/>
      <point x="728.8615384615384" y="-215.56761133603237" type="qcurve"/>
      <point x="728.8615384615384" y="-245.56275303643724" type="line"/>
      <point x="701.3846153846154" y="-250.1093117408907"/>
      <point x="477.0615384615385" y="-261.61538461538464"/>
      <point x="439.61538461538464" y="-261.61538461538464" type="qcurve" smooth="yes"/>
      <point x="285.33846153846156" y="-261.61538461538464"/>
      <point x="93.12307692307692" y="-106.86153846153846"/>
      <point x="93.12307692307692" y="31.953846153846143" type="qcurve" smooth="yes"/>
      <point x="93.12307692307692" y="151.84615384615384"/>
      <point x="260.32307692307694" y="425.13846153846157"/>
      <point x="260.32307692307694" y="553.8615384615384" type="qcurve"/>
      <point x="260.32307692307694" y="636.9708502024291" type="line"/>
    </contour>
  </outline>
</glyph>
<glyph name="braceright" format="2">
  <advance width="745"/>
  <unicode hex="007D"/>
  <outline>
    <contour>
      <point x="16.369230769230768" y="-245.56275303643724" type="qcurve"/>
      <point x="16.369230769230768" y="-215.56761133603237" type="line"/>
      <point x="49.57894736842105" y="-218.76842105263157"/>
      <point x="102.2744939271255" y="-219.35870445344128"/>
      <point x="129.02834008097165" y="-219.35870445344128" type="qcurve" smooth="yes"/>
      <point x="216.79757085020242" y="-219.35870445344128"/>
      <point x="285.59757085020243" y="-104.75222672064778"/>
      <point x="285.59757085020243" y="-9.809716599190303" type="qcurve" smooth="yes"/>
      <point x="285.59757085020243" y="84.08663967611335"/>
      <point x="111.24615384615385" y="374.09878542510125"/>
      <point x="111.24615384615385" y="477.52064777327934" type="qcurve" smooth="yes"/>
      <point x="111.24615384615385" y="556.9627530364372"/>
      <point x="224.89797570850203" y="655.8518218623482"/>
      <point x="354.617004048583" y="678.8113360323887" type="qcurve"/>
      <point x="229.531983805668" y="702.6834008097167"/>
      <point x="111.24615384615385" y="795.4825910931174"/>
      <point x="111.24615384615385" y="870.502024291498" type="qcurve" smooth="yes"/>
      <point x="111.24615384615385" y="966.446963562753"/>
      <point x="250.7716599190283" y="1183.591093117409"/>
      <point x="250.7716599190283" y="1277.2259109311742" type="qcurve" smooth="yes"/>
      <point x="250.7716599190283" y="1376.5838056680163"/>
      <point x="176.0331983805668" y="1471.8364372469634"/>
      <point x="89.00242914979756" y="1471.8364372469634" type="qcurve" smooth="yes"/>
      <point x="62.87935222672064" y="1471.8364372469634"/>
      <point x="41.49230769230769" y="1470.9206477732794"/>
      <point x="14.0" y="1466.7838056680162" type="qcurve"/>
      <point x="14.0" y="1496.9473684210527" type="line"/>
      <point x="41.45668016194332" y="1503.0"/>
      <point x="274.80242914979755" y="1510.0"/>
      <point x="314.1408906882591" y="1510.0" type="qcurve" smooth="yes"/>
      <point x="436.0485829959514" y="1510.0"/>
      <point x="636.0024291497976" y="1361.2923076923078"/>
      <point x="636.0024291497976" y="1223.7384615384615" type="qcurve" smooth="yes"/>
      <point x="636.0024291497976" y="1121.5076923076922"/>
      <point x="480.4923076923077" y="924.1538461538462"/>
      <point x="480.4923076923077" y="840.6615384615385" type="qcurve" smooth="yes"/>
      <point x="480.4923076923077" y="758.4615384615385"/>
      <point x="576.0" y="689.8817813765182"/>
      <point x="637.4615384615385" y="687.0356275303644" type="qcurve" smooth="yes"/>
      <point x="708.5384615384615" y="684.6048582995951" type="line"/>
      <point x="708.5384615384615" y="645.8016194331984" type="line"/>
      <point x="485.9076923076923" y="637.6016194331984" type="line"/>
      <point x="485.9076923076923" y="554.4923076923077" type="line"/>
      <point x="485.9076923076923" y="435.2307692307692"/>
      <point x="670.1975708502024" y="139.23076923076923"/>
      <point x="670.8283400809717" y="31.953846153846143" type="qcurve" smooth="yes"/>
      <point x="671.4591093117408" y="-106.86153846153846"/>
      <point x="478.61295546558705" y="-261.61538461538464"/>
      <point x="324.33603238866397" y="-261.61538461538464" type="qcurve" smooth="yes"/>
      <point x="286.88987854251013" y="-261.61538461538464"/>
      <point x="43.84615384615385" y="-251.0251012145749"/>
    </contour>
  </outline>
</glyph>
<glyph name="asciitilde" format="2">
  <advance width="953"/>
  <unicode hex="007E"/>
  <outline>
    <contour>
      <point x="38.89635627530364" y="585.7344129554656" type="line"/>
      <point x="76.37894736842105" y="675.6331983805668"/>
      <point x="270.0615384615385" y="839.2307692307693"/>
      <point x="345.2307692307692" y="844.9076923076923" type="qcurve"/>
      <point x="640.3862348178138" y="732.3854251012147" type="line"/>
      <point x="702.4242914979757" y="726.2801619433199"/>
      <point x="797.5846153846154" y="786.4356275303644"/>
      <point x="834.1246963562753" y="843.2024291497976" type="qcurve"/>
      <point x="897.293927125506" y="766.297975708502" type="line"/>
      <point x="862.5295546558705" y="668.6696356275303"/>
      <point x="681.3384615384615" y="493.4"/>
      <point x="597.6769230769231" y="487.0923076923077" type="qcurve"/>
      <point x="316.70526315789476" y="597.655060728745" type="line"/>
      <point x="258.60323886639674" y="603.7603238866398"/>
      <point x="137.57975708502025" y="548.9838056680162"/>
      <point x="86.82995951417004" y="496.8647773279352" type="qcurve"/>
    </contour>
  </outline>
</glyph>
<glyph name="currency" format="2">
  <advance width="1265"/>
  <unicode hex="00A4"/>
  <outline>
    <contour>
      <point x="180.8655870445344" y="837.4412955465588" type="qcurve" smooth="yes"/>
      <point x="180.8655870445344" y="1022.3182186234818"/>
      <point x="424.9117408906883" y="1282.8412955465585"/>
      <point x="622.2655870445344" y="1282.8412955465585" type="qcurve" smooth="yes"/>
      <point x="822.2502024291498" y="1282.8412955465585"/>
      <point x="1068.6655870445345" y="1039.7951417004047"/>
      <point x="1068.6655870445345" y="842.8105263157895" type="qcurve" smooth="yes"/>
      <point x="1068.6655870445345" y="657.9336032388665"/>
      <point x="826.6194331983806" y="391.0412955465587"/>
      <point x="627.6348178137652" y="391.0412955465587" type="qcurve" smooth="yes"/>
      <point x="429.28097165991903" y="391.0412955465587"/>
      <point x="180.8655870445344" y="638.0874493927125"/>
    </contour>
    <contour>
      <point x="379.7578947368421" y="849.548987854251" type="qcurve" smooth="yes"/>
      <point x="380.7578947368421" y="736.1643724696356"/>
      <point x="512.2502024291498" y="581.1951417004049"/>
      <point x="620.2655870445344" y="581.1951417004049" type="qcurve" smooth="yes"/>
      <point x="737.6502024291498" y="581.1951417004049"/>
      <point x="862.7732793522267" y="721.4259109311741"/>
      <point x="862.7732793522267" y="840.4412955465588" type="qcurve" smooth="yes"/>
      <point x="862.7732793522267" y="946.8259109311741"/>
      <point x="731.280971659919" y="1087.6874493927126"/>
      <point x="622.2655870445344" y="1087.6874493927126" type="qcurve" smooth="yes"/>
      <point x="504.51174089068826" y="1087.6874493927126"/>
      <point x="378.7578947368421" y="960.5643724696356"/>
    </contour>
    <contour>
      <point x="310.51174089068826" y="1105.0412955465586" type="line"/>
      <point x="60.18866396761134" y="1340.225910931174" type="line"/>
      <point x="150.10283400809715" y="1434.617004048583" type="line"/>
      <point x="392.2259109311741" y="1190.6016194331985" type="line"/>
    </contour>
    <contour>
      <point x="954.7117408906882" y="1092.425910931174" type="line"/>
      <point x="872.9975708502025" y="1177.9862348178137" type="line"/>
      <point x="1121.4283400809718" y="1434.617004048583" type="line"/>
      <point x="1211.3425101214575" y="1340.225910931174" type="line"/>
    </contour>
    <contour>
      <point x="316.8194331983806" y="563.0874493927125" type="line"/>
      <point x="398.5336032388664" y="477.5271255060728" type="line"/>
      <point x="150.10283400809715" y="221.52712550607288" type="line"/>
      <point x="60.18866396761134" y="315.2874493927126" type="line"/>
    </contour>
    <contour>
      <point x="948.404048582996" y="569.3951417004049" type="line"/>
      <point x="1211.3425101214575" y="315.2874493927126" type="line"/>
      <point x="1121.4283400809718" y="221.52712550607288" type="line"/>
      <point x="866.6898785425101" y="483.83481781376514" type="line"/>
    </contour>
  </outline>
</glyph>
<glyph name="twosuperior" format="2">
  <advance width="815"/>
  <unicode hex="00B2"/>
  <outline>
    <contour>
      <point x="84.67692307692307" y="732.1846153846154" type="line"/>
      <point x="85.93846153846154" y="823.0461538461539" type="line"/>
      <point x="100.61295546558705" y="894.6016194331983"/>
      <point x="229.0" y="1036.7692307692307"/>
      <point x="337.38461538461536" y="1100.0307692307692" type="qcurve" smooth="yes"/>
      <point x="378.63076923076926" y="1125.5692307692307"/>
      <point x="438.82267206477735" y="1207.0923076923077"/>
      <point x="441.63076923076926" y="1279.2307692307693" type="qcurve" smooth="yes"/>
      <point x="444.4388663967611" y="1342.451012145749"/>
      <point x="384.2" y="1411.9384615384615"/>
      <point x="325.7846153846154" y="1411.9384615384615" type="qcurve" smooth="yes"/>
      <point x="277.4" y="1411.9384615384615"/>
      <point x="175.4" y="1353.4307692307693"/>
      <point x="134.90769230769232" y="1291.446153846154" type="qcurve"/>
      <point x="105.87692307692308" y="1373.4923076923078" type="line"/>
      <point x="144.52307692307693" y="1430.8"/>
      <point x="320.95384615384614" y="1520.0"/>
      <point x="429.03076923076924" y="1520.0" type="qcurve" smooth="yes"/>
      <point x="593.0923076923077" y="1520.0"/>
      <point x="716.9692307692308" y="1409.1384615384616"/>
      <point x="719.9692307692308" y="1321.0153846153846" type="qcurve" smooth="yes"/>
      <point x="722.9692307692308" y="1213.2153846153847"/>
      <point x="606.6623481781377" y="1081.225910931174"/>
      <point x="477.5238866396761" y="1031.1101214574899" type="qcurve" smooth="yes"/>
      <point x="308.1222672064777" y="967.7522267206477"/>
      <point x="259.7919028340081" y="931.6801619433198"/>
      <point x="254.84372469635628" y="927.0" type="qcurve"/>
      <point x="256.8437246963563" y="925.2461538461539" type="line"/>
      <point x="735.5538461538462" y="924.2461538461539" type="line"/>
      <point x="735.5538461538462" y="732.1846153846154" type="line"/>
    </contour>
  </outline>
</glyph>
<glyph name="threesuperior" format="2">
  <advance width="714"/>
  <unicode hex="00B3"/>
  <outline>
    <contour>
      <point x="18.744939271255063" y="834.2461538461539" type="qcurve"/>
      <point x="55.86801619433199" y="928.7692307692307" type="line"/>
      <point x="81.62186234817815" y="878.1538461538462"/>
      <point x="189.56032388663968" y="822.7538461538461"/>
      <point x="245.51417004048585" y="822.7538461538461" type="qcurve" smooth="yes"/>
      <point x="318.36923076923074" y="822.7538461538461"/>
      <point x="392.5789473684211" y="902.6275303643725"/>
      <point x="392.5789473684211" y="973.8275303643725" type="qcurve" smooth="yes"/>
      <point x="392.5789473684211" y="1030.4121457489878"/>
      <point x="311.14493927125505" y="1106.446153846154"/>
      <point x="220.32955465587045" y="1106.446153846154" type="qcurve" smooth="yes"/>
      <point x="193.11417004048585" y="1106.446153846154" type="line"/>
      <point x="185.31417004048583" y="1185.8153846153846" type="line"/>
      <point x="236.96032388663969" y="1189.446153846154" type="line" smooth="yes"/>
      <point x="313.39433198380567" y="1195.3384615384616"/>
      <point x="378.52064777327934" y="1257.076923076923"/>
      <point x="378.52064777327934" y="1311.2307692307693" type="qcurve" smooth="yes"/>
      <point x="378.52064777327934" y="1359.753846153846"/>
      <point x="317.9975708502024" y="1417.0"/>
      <point x="256.52064777327934" y="1417.0" type="qcurve" smooth="yes"/>
      <point x="215.50526315789475" y="1417.0"/>
      <point x="134.3910931174089" y="1386.7886639676115"/>
      <point x="104.37570850202428" y="1356.3125506072874" type="qcurve"/>
      <point x="70.31417004048583" y="1420.1076923076923" type="line"/>
      <point x="119.00647773279351" y="1466.7384615384615"/>
      <point x="267.4526315789474" y="1520.0"/>
      <point x="372.83724696356273" y="1520.0" type="qcurve" smooth="yes"/>
      <point x="505.16032388663973" y="1520.0"/>
      <point x="655.8526315789474" y="1423.676923076923"/>
      <point x="657.8526315789474" y="1347.0923076923077" type="qcurve" smooth="yes"/>
      <point x="659.8526315789474" y="1260.5076923076922"/>
      <point x="546.8987854251012" y="1176.6923076923076"/>
      <point x="437.94493927125507" y="1153.9538461538461" type="qcurve"/>
      <point x="437.94493927125507" y="1150.5846153846153" type="line"/>
      <point x="551.8987854251012" y="1147.5846153846153"/>
      <point x="681.591093117409" y="1045.1538461538462"/>
      <point x="681.591093117409" y="963.0307692307692" type="qcurve" smooth="yes"/>
      <point x="681.591093117409" y="842.2923076923076"/>
      <point x="459.6834008097166" y="713.9692307692308"/>
      <point x="313.43724696356276" y="713.9692307692308" type="qcurve" smooth="yes"/>
      <point x="213.56032388663968" y="713.9692307692308"/>
      <point x="58.760323886639675" y="781.5230769230769"/>
    </contour>
  </outline>
</glyph>
<glyph name="onesuperior" format="2">
  <advance width="841"/>
  <unicode hex="00B9"/>
  <outline>
    <contour>
      <point x="120.3076923076923" y="731.1846153846154" type="line"/>
      <point x="120.3076923076923" y="802.3846153846154" type="line"/>
      <point x="286.4914979757085" y="832.3846153846154" type="line"/>
      <point x="289.4914979757085" y="1137.3846153846155" type="line"/>
      <point x="286.4914979757085" y="1350.7133603238867" type="line"/>
      <point x="112.0" y="1379.3935222672067" type="line"/>
      <point x="112.0" y="1461.753846153846" type="line"/>
      <point x="556.3085020242914" y="1508.0" type="line"/>
      <point x="582.0008097165992" y="1485.6153846153845" type="line"/>
      <point x="576.0008097165992" y="1137.3846153846155" type="line"/>
      <point x="578.0008097165992" y="832.3846153846154" type="line"/>
      <point x="740.7692307692307" y="802.3846153846154" type="line"/>
      <point x="740.7692307692307" y="731.1846153846154" type="line"/>
    </contour>
  </outline>
</glyph>
<glyph name="AE" format="2">
  <advance width="2198"/>
  <unicode hex="00C6"/>
  <outline>
    <contour>
      <point x="96.29230769230769" y="0.0" type="line"/>
      <point x="96.29230769230769" y="83.6923076923077" type="line"/>
      <point x="288.4153846153846" y="116.6923076923077" type="line"/>
      <point x="508.2153846153846" y="545.0461538461539" type="line"/>
      <point x="919.3230769230769" y="1377.246153846154" type="line"/>
      <point x="787.1538461538462" y="1412.5076923076922" type="line"/>
      <point x="787.1538461538462" y="1500.0" type="line"/>
      <point x="2075.2" y="1500.0" type="line"/>
      <point x="2075.2" y="1156.6615384615384" type="line"/>
      <point x="1970.553846153846" y="1156.6615384615384" type="line"/>
      <point x="1888.876923076923" y="1397.5076923076922" type="line"/>
      <point x="1628.9846153846154" y="1397.5076923076922" type="line"/>
      <point x="1570.8307692307692" y="1374.7692307692307" type="line"/>
      <point x="1568.8307692307692" y="783.6307692307693" type="line"/>
      <point x="1570.8307692307692" y="134.43076923076922" type="line"/>
      <point x="1626.1384615384616" y="107.53846153846155" type="line"/>
      <point x="1935.2" y="107.53846153846155" type="line"/>
      <point x="2053.246153846154" y="383.33846153846156" type="line"/>
      <point x="2156.2615384615383" y="383.33846153846156" type="line"/>
      <point x="2118.892307692308" y="0.0" type="line"/>
      <point x="927.1538461538462" y="0.0" type="line"/>
      <point x="927.1538461538462" y="82.6923076923077" type="line"/>
      <point x="1078.0307692307692" y="116.43076923076923" type="line"/>
      <point x="1080.0307692307692" y="783.6307692307693" type="line"/>
      <point x="1078.0307692307692" y="1352.4153846153847" type="line"/>
      <point x="1050.246153846154" y="1375.2615384615385" type="line"/>
      <point x="627.1692307692308" y="530.123076923077" type="line"/>
      <point x="433.44615384615383" y="117.32307692307693" type="line"/>
      <point x="611.1076923076923" y="83.6923076923077" type="line"/>
      <point x="611.1076923076923" y="0.0" type="line"/>
    </contour>
    <contour>
      <point x="564.7384615384615" y="549.723076923077" type="line"/>
      <point x="619.2" y="646.3692307692307" type="line"/>
      <point x="859.8461538461538" y="636.4153846153846" type="line"/>
      <point x="859.8461538461538" y="550.9846153846154" type="line"/>
    </contour>
    <contour>
      <point x="859.8461538461538" y="636.4153846153846" type="line"/>
      <point x="1145.8153846153846" y="648.0" type="line"/>
      <point x="1147.076923076923" y="550.9846153846154" type="line"/>
      <point x="859.8461538461538" y="550.9846153846154" type="line"/>
    </contour>
    <contour>
      <point x="1327.7692307692307" y="738.8153846153846" type="line"/>
      <point x="1327.7692307692307" y="833.1846153846154" type="line"/>
      <point x="1850.3076923076924" y="841.2923076923076" type="line"/>
      <point x="1899.3846153846155" y="994.276923076923" type="line"/>
      <point x="1990.4" y="994.276923076923" type="line"/>
      <point x="1990.4" y="570.723076923077" type="line"/>
      <point x="1899.3846153846155" y="570.723076923077" type="line"/>
      <point x="1850.3076923076924" y="730.7076923076924" type="line"/>
    </contour>
  </outline>
</glyph>
<glyph name="eth" format="2">
  <advance width="1424"/>
  <unicode hex="00F0"/>
  <outline>
    <contour>
      <point x="41.90769230769231" y="482.9230769230769" type="qcurve" smooth="yes"/>
      <point x="41.90769230769231" y="728.4"/>
      <point x="406.46153846153845" y="990.5846153846154"/>
      <point x="701.6" y="990.5846153846154" type="qcurve" smooth="yes"/>
      <point x="908.1076923076923" y="990.5846153846154"/>
      <point x="1060.1384615384616" y="691.9846153846154"/>
      <point x="1066.0461538461539" y="474.55384615384617" type="qcurve"/>
      <point x="879.7538461538461" y="477.0769230769231" type="line"/>
      <point x="861.0331983805669" y="701.131983805668"/>
      <point x="781.8607287449393" y="884.4615384615385"/>
      <point x="711.6" y="887.4615384615385" type="qcurve" smooth="yes"/>
      <point x="632.8307692307692" y="890.4615384615385"/>
      <point x="545.7076923076924" y="745.0923076923077"/>
      <point x="546.0769230769231" y="497.2923076923077" type="qcurve" smooth="yes"/>
      <point x="546.4461538461538" y="230.55384615384617"/>
      <point x="631.6307692307693" y="64.53846153846155"/>
      <point x="704.5538461538462" y="63.90769230769231" type="qcurve" smooth="yes"/>
      <point x="811.5846153846154" y="63.276923076923076"/>
      <point x="872.2923076923078" y="285.4153846153846"/>
      <point x="872.2923076923078" y="520.0769230769231" type="qcurve" smooth="yes"/>
      <point x="872.2923076923078" y="872.5230769230769"/>
      <point x="598.6923076923077" y="1382.8153846153846"/>
      <point x="315.2" y="1481.8153846153846" type="qcurve"/>
      <point x="397.6923076923077" y="1564.0307692307692" type="line"/>
      <point x="917.8461538461538" y="1422.923076923077"/>
      <point x="1367.9417004048585" y="908.4769230769231"/>
      <point x="1367.9417004048585" y="601.9230769230769" type="qcurve" smooth="yes"/>
      <point x="1367.9417004048585" y="287.65101214574895"/>
      <point x="1006.0129554655871" y="-25.73846153846154"/>
      <point x="690.2283400809716" y="-25.73846153846154" type="qcurve" smooth="yes"/>
      <point x="393.45910931174086" y="-25.73846153846154"/>
      <point x="41.90769230769231" y="223.6"/>
    </contour>
    <contour>
      <point x="342.25263157894733" y="1183.0923076923077" type="line"/>
      <point x="1086.2526315789473" y="1519.0923076923077" type="line"/>
      <point x="1129.4834008097166" y="1407.4307692307693" type="line"/>
      <point x="385.48340080971656" y="1069.4307692307693" type="line"/>
    </contour>
  </outline>
</glyph>
<glyph name="oe" format="2">
  <advance width="1966"/>
  <unicode hex="0153"/>
  <outline>
    <contour>
      <point x="41.90769230769231" y="499.7692307692308" type="qcurve" smooth="yes"/>
      <point x="41.90769230769231" y="745.2461538461539"/>
      <point x="411.4153846153846" y="1025.5384615384614"/>
      <point x="706.5538461538462" y="1025.5384615384614" type="qcurve" smooth="yes"/>
      <point x="805.5384615384615" y="1025.5384615384614"/>
      <point x="966.1384615384616" y="994.5076923076923"/>
      <point x="1048.4615384615386" y="955.4923076923077" type="qcurve"/>
      <point x="1050.7846153846153" y="955.4923076923077" type="line"/>
      <point x="1123.523076923077" y="994.1384615384616"/>
      <point x="1305.8153846153846" y="1026.5384615384614"/>
      <point x="1395.523076923077" y="1026.5384615384614" type="qcurve" smooth="yes"/>
      <point x="1634.8307692307692" y="1026.5384615384614"/>
      <point x="1930.7846153846153" y="785.5846153846154"/>
      <point x="1937.1692307692308" y="576.7846153846153" type="qcurve"/>
      <point x="1937.8" y="497.8615384615385" type="line"/>
      <point x="1192.076923076923" y="497.8615384615385" type="line"/>
      <point x="1192.076923076923" y="587.6" type="line"/>
      <point x="1532.323076923077" y="587.6" type="line"/>
      <point x="1535.6307692307691" y="748.1692307692308"/>
      <point x="1498.5846153846155" y="926.7846153846153"/>
      <point x="1425.4153846153847" y="926.7846153846153" type="qcurve" smooth="yes"/>
      <point x="1370.0615384615385" y="926.7846153846153"/>
      <point x="1295.0923076923077" y="789.723076923077"/>
      <point x="1295.4615384615386" y="536.4461538461538" type="qcurve" smooth="yes"/>
      <point x="1295.8307692307692" y="282.9230769230769"/>
      <point x="1410.0307692307692" y="134.67692307692306"/>
      <point x="1524.2307692307693" y="134.67692307692306" type="qcurve" smooth="yes"/>
      <point x="1634.076923076923" y="134.67692307692306"/>
      <point x="1812.2769230769231" y="232.64615384615385"/>
      <point x="1862.2769230769231" y="292.6307692307692" type="qcurve"/>
      <point x="1915.8307692307692" y="216.27692307692308" type="line"/>
      <point x="1864.3538461538462" y="125.44615384615385"/>
      <point x="1602.876923076923" y="-27.0"/>
      <point x="1414.8461538461538" y="-27.0" type="qcurve" smooth="yes"/>
      <point x="1324.3384615384616" y="-27.0"/>
      <point x="1140.1846153846154" y="-9.584615384615383"/>
      <point x="1062.7076923076922" y="39.73846153846154" type="qcurve"/>
      <point x="1056.9692307692308" y="39.73846153846154" type="line"/>
      <point x="958.0923076923077" y="-2.5384615384615365"/>
      <point x="782.0461538461539" y="-25.73846153846154"/>
      <point x="689.9538461538461" y="-25.73846153846154" type="qcurve" smooth="yes"/>
      <point x="416.5230769230769" y="-25.73846153846154"/>
      <point x="41.90769230769231" y="240.44615384615383"/>
    </contour>
    <contour>
      <point x="546.0769230769231" y="514.1384615384616" type="qcurve" smooth="yes"/>
      <point x="546.4461538461538" y="247.4"/>
      <point x="619.6461538461539" y="63.90769230769231"/>
      <point x="688.7846153846153" y="63.90769230769231" type="qcurve" smooth="yes"/>
      <point x="752.6769230769231" y="63.90769230769231"/>
      <point x="833.2307692307693" y="221.98461538461538"/>
      <point x="832.6" y="497.61538461538464" type="qcurve" smooth="yes"/>
      <point x="832.6" y="759.2461538461539"/>
      <point x="748.3076923076923" y="922.4153846153846"/>
      <point x="685.1076923076923" y="922.4153846153846" type="qcurve" smooth="yes"/>
      <point x="616.4307692307692" y="922.4153846153846"/>
      <point x="545.7076923076924" y="771.9384615384615"/>
    </contour>
  </outline>
</glyph>
<glyph name="Schwa" format="2">
  <advance width="1453"/>
  <unicode hex="018F"/>
  <outline>
    <contour>
      <point x="77.61538461538461" y="1229.2615384615385" type="line"/>
      <point x="130.16923076923078" y="1338.8153846153846"/>
      <point x="417.66153846153844" y="1518.3692307692309"/>
      <point x="632.2461538461539" y="1518.3692307692309" type="qcurve" smooth="yes"/>
      <point x="922.5846153846154" y="1518.3692307692309"/>
      <point x="1397.8461538461538" y="1149.4153846153847"/>
      <point x="1397.8461538461538" y="716.7384615384616" type="qcurve" smooth="yes"/>
      <point x="1397.8461538461538" y="341.2769230769231"/>
      <point x="983.9692307692308" y="-24.47692307692308"/>
      <point x="641.4307692307692" y="-24.47692307692308" type="qcurve" smooth="yes"/>
      <point x="340.5692307692308" y="-24.47692307692308"/>
      <point x="17.400000000000002" y="310.6461538461538"/>
      <point x="12.353846153846156" y="614.5846153846154" type="qcurve" smooth="yes"/>
      <point x="11.723076923076924" y="679.6923076923077" type="line"/>
      <point x="1123.2923076923078" y="679.6923076923077" type="line"/>
      <point x="1123.2923076923078" y="583.9230769230769" type="line"/>
      <point x="653.6461538461539" y="586.876923076923" type="line"/>
      <point x="333.2153846153846" y="584.6615384615385" type="line"/>
      <point x="333.2153846153846" y="566.1538461538462" type="line" smooth="yes"/>
      <point x="333.2153846153846" y="377.36923076923074"/>
      <point x="455.73846153846154" y="94.12307692307692"/>
      <point x="601.5846153846154" y="94.12307692307692" type="qcurve" smooth="yes"/>
      <point x="729.0769230769231" y="94.12307692307692"/>
      <point x="860.5230769230769" y="308.89230769230767"/>
      <point x="861.7846153846153" y="705.4" type="qcurve" smooth="yes"/>
      <point x="863.0461538461539" y="1160.123076923077"/>
      <point x="690.9538461538461" y="1363.7846153846153"/>
      <point x="524.2615384615385" y="1363.7846153846153" type="qcurve" smooth="yes"/>
      <point x="419.46153846153845" y="1363.7846153846153"/>
      <point x="229.13846153846154" y="1257.0615384615385"/>
      <point x="162.83076923076925" y="1171.1076923076923" type="qcurve"/>
    </contour>
  </outline>
</glyph>
<glyph name="florin" format="2">
  <advance width="913"/>
  <unicode hex="0192"/>
  <outline>
    <contour>
      <point x="675.3692307692307" y="114.63076923076923" type="line" smooth="yes"/>
      <point x="675.7384615384616" y="-53.98461538461538"/>
      <point x="492.2153846153846" y="-246.2923076923077"/>
      <point x="301.15384615384613" y="-246.2923076923077" type="qcurve" smooth="yes"/>
      <point x="206.09230769230768" y="-246.2923076923077"/>
      <point x="56.6" y="-218.76923076923077"/>
      <point x="19.53846153846154" y="-200.13846153846154" type="qcurve" smooth="yes"/>
      <point x="1.8461538461538463" y="-190.13846153846154" type="line"/>
      <point x="-8.246153846153845" y="-87.12307692307692" type="line"/>
      <point x="1.2307692307692317" y="-89.6" type="line" smooth="yes"/>
      <point x="14.96923076923077" y="-94.96923076923076"/>
      <point x="66.50769230769231" y="-103.44615384615385"/>
      <point x="87.98461538461538" y="-103.44615384615385" type="qcurve" smooth="yes"/>
      <point x="123.6923076923077" y="-103.44615384615385"/>
      <point x="186.47692307692307" y="-52.43076923076923"/>
      <point x="187.73846153846154" y="15.03076923076923" type="qcurve" smooth="yes"/>
      <point x="192.72307692307692" y="835.0769230769231" type="line"/>
      <point x="58.246153846153845" y="866.8" type="line"/>
      <point x="64.55384615384615" y="956.9076923076923" type="line"/>
      <point x="199.4" y="978.4923076923077" type="line"/>
      <point x="195.92307692307693" y="1161.6153846153845" type="line" smooth="yes"/>
      <point x="190.55384615384617" y="1330.2307692307693"/>
      <point x="377.81538461538463" y="1535.1538461538462"/>
      <point x="568.876923076923" y="1535.1538461538462" type="qcurve" smooth="yes"/>
      <point x="663.9384615384615" y="1535.1538461538462"/>
      <point x="813.4307692307692" y="1508.8923076923077"/>
      <point x="850.4923076923077" y="1489.0" type="qcurve" smooth="yes"/>
      <point x="868.1846153846154" y="1479.0" type="line"/>
      <point x="878.276923076923" y="1375.9846153846154" type="line"/>
      <point x="868.8" y="1378.4615384615386" type="line" smooth="yes"/>
      <point x="855.0615384615385" y="1383.8307692307692"/>
      <point x="803.5230769230769" y="1392.3076923076924"/>
      <point x="782.0461538461539" y="1392.3076923076924" type="qcurve" smooth="yes"/>
      <point x="746.3384615384615" y="1392.3076923076924"/>
      <point x="688.1846153846154" y="1328.676923076923"/>
      <point x="687.2923076923076" y="1261.2153846153847" type="qcurve" smooth="yes"/>
      <point x="681.4615384615385" y="966.6" type="line"/>
      <point x="867.8615384615384" y="966.6" type="line"/>
      <point x="867.8615384615384" y="855.6" type="line"/>
      <point x="681.0923076923077" y="855.5384615384615" type="line"/>
    </contour>
  </outline>
</glyph>
<glyph name="dieresisbelowcomb" format="2">
  <advance width="943"/>
  <unicode hex="0324"/>
  <outline>
    <contour>
      <point x="140.6153846153846" y="-291.5846153846154" type="qcurve" smooth="yes"/>
      <point x="140.6153846153846" y="-228.15384615384616"/>
      <point x="208.15384615384616" y="-162.6153846153846"/>
      <point x="272.95384615384614" y="-162.6153846153846" type="qcurve" smooth="yes"/>
      <point x="334.38461538461536" y="-162.6153846153846"/>
      <point x="405.2923076923077" y="-234.15384615384616"/>
      <point x="405.2923076923077" y="-291.5846153846154" type="qcurve" smooth="yes"/>
      <point x="405.2923076923077" y="-354.38461538461536"/>
      <point x="337.75384615384615" y="-420.9230769230769"/>
      <point x="272.95384615384614" y="-420.9230769230769" type="qcurve" smooth="yes"/>
      <point x="211.52307692307693" y="-420.9230769230769"/>
      <point x="140.6153846153846" y="-351.0153846153846"/>
    </contour>
    <contour>
      <point x="537.9692307692308" y="-291.5846153846154" type="qcurve" smooth="yes"/>
      <point x="537.9692307692308" y="-228.15384615384616"/>
      <point x="606.5076923076923" y="-162.6153846153846"/>
      <point x="670.3076923076923" y="-162.6153846153846" type="qcurve" smooth="yes"/>
      <point x="731.7384615384615" y="-162.6153846153846"/>
      <point x="802.6461538461539" y="-234.15384615384616"/>
      <point x="802.6461538461539" y="-291.5846153846154" type="qcurve" smooth="yes"/>
      <point x="802.6461538461539" y="-354.38461538461536"/>
      <point x="736.1076923076923" y="-420.9230769230769"/>
      <point x="670.3076923076923" y="-420.9230769230769" type="qcurve" smooth="yes"/>
      <point x="608.876923076923" y="-420.9230769230769"/>
      <point x="537.9692307692308" y="-351.0153846153846"/>
    </contour>
  </outline>
</glyph>
<glyph name="brevebelowcomb" format="2">
  <advance width="943"/>
  <unicode hex="032E"/>
  <outline>
    <contour>
      <point x="742.9846153846154" y="-115.33846153846153" type="qcurve"/>
      <point x="797.2461538461539" y="-123.38461538461539" type="line"/>
      <point x="799.5384615384615" y="-229.87692307692308"/>
      <point x="615.5076923076923" y="-432.4769230769231"/>
      <point x="473.26153846153846" y="-432.4769230769231" type="qcurve" smooth="yes"/>
      <point x="320.9230769230769" y="-432.4769230769231"/>
      <point x="143.46153846153845" y="-255.13846153846154"/>
      <point x="145.3846153846154" y="-128.90769230769232" type="qcurve"/>
      <point x="202.75384615384615" y="-114.33846153846153" type="line"/>
      <point x="229.4" y="-181.6153846153846"/>
      <point x="373.5076923076923" y="-275.2153846153846"/>
      <point x="474.89230769230767" y="-275.84615384615387" type="qcurve" smooth="yes"/>
      <point x="579.123076923077" y="-275.2153846153846"/>
      <point x="724.8615384615384" y="-175.2"/>
    </contour>
  </outline>
</glyph>
<glyph name="abrevetilde" format="2">
  <advance width="1330"/>
  <unicode hex="1EB5"/>
  <outline>
    <contour>
      <point x="313.04615384615386" y="1559.523076923077" type="line"/>
      <point x="340.84615384615387" y="1628.323076923077"/>
      <point x="456.4" y="1753.0615384615385"/>
      <point x="536.3538461538461" y="1753.0615384615385" type="qcurve" smooth="yes"/>
      <point x="575.0461538461539" y="1753.0615384615385"/>
      <point x="642.5846153846154" y="1731.8461538461538"/>
      <point x="679.9076923076923" y="1709.0" type="qcurve" smooth="yes"/>
      <point x="712.0153846153846" y="1688.0"/>
      <point x="782.2" y="1649.8307692307692"/>
      <point x="827.8307692307692" y="1649.8307692307692" type="qcurve" smooth="yes"/>
      <point x="864.8923076923077" y="1649.8307692307692"/>
      <point x="929.6" y="1696.4153846153847"/>
      <point x="948.9230769230769" y="1730.3692307692309" type="qcurve"/>
      <point x="998.2615384615385" y="1669.1692307692308" type="line"/>
      <point x="966.723076923077" y="1589.2615384615385"/>
      <point x="869.4769230769231" y="1486.6307692307691"/>
      <point x="801.6307692307693" y="1486.6307692307691" type="qcurve" smooth="yes"/>
      <point x="757.2" y="1486.6307692307691"/>
      <point x="670.2307692307693" y="1520.2769230769231"/>
      <point x="640.4923076923077" y="1536.3846153846155" type="qcurve" smooth="yes"/>
      <point x="603.9076923076923" y="1556.6"/>
      <point x="535.8461538461538" y="1591.753846153846"/>
      <point x="507.0" y="1591.753846153846" type="qcurve" smooth="yes"/>
      <point x="462.5692307692308" y="1591.753846153846"/>
      <point x="376.4" y="1527.0615384615385"/>
      <point x="360.18461538461537" y="1500.5846153846153" type="qcurve"/>
    </contour>
    <contour>
      <point x="939.1538461538462" y="1447.7692307692307" type="qcurve"/>
      <point x="1002.876923076923" y="1429.0" type="line"/>
      <point x="988.7692307692307" y="1318.7230769230769"/>
      <point x="811.0461538461539" y="1120.5384615384614"/>
      <point x="659.3384615384615" y="1120.5384615384614" type="qcurve" smooth="yes"/>
      <point x="507.63076923076926" y="1120.5384615384614"/>
      <point x="328.2769230769231" y="1297.246153846154"/>
      <point x="313.8" y="1426.0" type="qcurve"/>
      <point x="382.5230769230769" y="1448.1384615384616" type="line"/>
      <point x="416.10769230769233" y="1377.076923076923"/>
      <point x="560.2153846153847" y="1285.3692307692309"/>
      <point x="660.3384615384615" y="1286.0" type="qcurve" smooth="yes"/>
      <point x="765.8307692307692" y="1285.3692307692309"/>
      <point x="910.9384615384615" y="1379.076923076923"/>
    </contour>
    <component base="a"/>
  </outline>
</glyph>
<glyph name="ecircumflexgrave" format="2">
  <advance width="1227"/>
  <unicode hex="1EC1"/>
  <outline>
    <contour>
      <point x="651.4923076923077" y="1498.8923076923077" type="qcurve" smooth="yes"/>
      <point x="683.6615384615385" y="1498.8923076923077"/>
      <point x="744.5076923076923" y="1448.5846153846153"/>
      <point x="788.3538461538461" y="1393.9538461538461" type="qcurve" smooth="yes"/>
      <point x="973.2461538461539" y="1156.923076923077" type="line"/>
      <point x="915.2" y="1104.876923076923" type="line"/>
      <point x="652.7538461538461" y="1310.8" type="line"/>
      <point x="387.7846153846154" y="1104.876923076923" type="line"/>
      <point x="331.0" y="1156.2923076923078" type="line"/>
      <point x="514.6307692307693" y="1393.9538461538461" type="line" smooth="yes"/>
      <point x="560.2153846153847" y="1452.5846153846153"/>
      <point x="619.3230769230769" y="1498.8923076923077"/>
    </contour>
    <contour>
      <point x="467.7230769230769" y="1756.8923076923077" type="qcurve" smooth="yes"/>
      <point x="462.61538461538464" y="1780.2769230769231"/>
      <point x="508.4769230769231" y="1850.2307692307693"/>
      <point x="544.0153846153846" y="1856.3384615384616" type="qcurve" smooth="yes"/>
      <point x="577.2923076923076" y="1861.8153846153846"/>
      <point x="651.3902834008097" y="1828.723886639676"/>
      <point x="686.2923076923076" y="1790.505263157895" type="qcurve" smooth="yes"/>
      <point x="887.004048582996" y="1556.5716599190284" type="line"/>
      <point x="873.2331983805668" y="1532.157894736842" type="line"/>
      <point x="550.4" y="1660.9255060728744" type="line" smooth="yes"/>
      <point x="511.2331983805668" y="1673.3967611336031"/>
      <point x="469.9384615384615" y="1737.8153846153846"/>
    </contour>
    <component base="e"/>
  </outline>
</glyph>
<glyph name="Ecircumflextilde" format="2">
  <advance width="1300"/>
  <unicode hex="1EC4"/>
  <outline>
    <contour>
      <point x="629.1076923076923" y="1989.6615384615384" type="qcurve" smooth="yes"/>
      <point x="661.2769230769231" y="1989.6615384615384"/>
      <point x="721.2307692307693" y="1932.7846153846153"/>
      <point x="765.9692307692308" y="1878.4153846153847" type="qcurve" smooth="yes"/>
      <point x="982.4" y="1612.4615384615386" type="line"/>
      <point x="924.3538461538461" y="1560.4153846153847" type="line"/>
      <point x="629.1076923076923" y="1777.6923076923076" type="line"/>
      <point x="340.1692307692308" y="1560.4153846153847" type="line"/>
      <point x="283.38461538461536" y="1611.8307692307692" type="line"/>
      <point x="492.24615384615385" y="1878.4153846153847" type="line" smooth="yes"/>
      <point x="535.5692307692308" y="1934.2615384615385"/>
      <point x="596.9384615384615" y="1989.6615384615384"/>
    </contour>
    <contour>
      <point x="292.5846153846154" y="2094.0307692307692" type="line"/>
      <point x="322.8" y="2172.4461538461537"/>
      <point x="440.55384615384617" y="2294.6"/>
      <point x="510.46153846153845" y="2294.6" type="qcurve" smooth="yes"/>
      <point x="552.2" y="2294.6"/>
      <point x="615.7384615384615" y="2273.753846153846"/>
      <point x="652.9538461538461" y="2251.646153846154" type="qcurve" smooth="yes"/>
      <point x="693.1538461538462" y="2224.7076923076925"/>
      <point x="757.4461538461538" y="2192.9538461538464"/>
      <point x="796.6615384615385" y="2192.9538461538464" type="qcurve" smooth="yes"/>
      <point x="831.9846153846154" y="2192.9538461538464"/>
      <point x="893.9538461538461" y="2239.4307692307693"/>
      <point x="919.8461538461538" y="2283.369230769231" type="qcurve"/>
      <point x="967.4461538461538" y="2224.276923076923" type="line"/>
      <point x="929.7076923076922" y="2136.753846153846"/>
      <point x="827.7384615384615" y="2035.9692307692308"/>
      <point x="768.3076923076923" y="2035.9692307692308" type="qcurve" smooth="yes"/>
      <point x="725.2461538461539" y="2035.9692307692308"/>
      <point x="647.0615384615385" y="2066.353846153846"/>
      <point x="613.6461538461539" y="2084.6153846153848" type="qcurve" smooth="yes"/>
      <point x="573.3846153846154" y="2106.9846153846156"/>
      <point x="513.7384615384615" y="2138.876923076923"/>
      <point x="483.36923076923074" y="2138.876923076923" type="qcurve" smooth="yes"/>
      <point x="440.67692307692306" y="2138.876923076923"/>
      <point x="350.04615384615386" y="2061.153846153846"/>
      <point x="337.9846153846154" y="2038.8307692307692" type="qcurve"/>
    </contour>
    <component base="E"/>
  </outline>
</glyph>
<glyph name="endash" format="2">
  <advance width="1024"/>
  <unicode hex="2013"/>
  <outline>
    <contour>
      <point x="0.0" y="513.3076923076923" type="line"/>
      <point x="0.0" y="798.3846153846154" type="line"/>
      <point x="508.04615384615386" y="799.123076923077" type="line"/>
      <point x="1024.0" y="798.3846153846154" type="line"/>
      <point x="1024.0" y="513.3076923076923" type="line"/>
      <point x="508.04615384615386" y="511.0923076923077" type="line"/>
    </contour>
  </outline>
</glyph>
<glyph name="quotesinglbase" format="2">
  <advance width="597"/>
  <unicode hex="201A"/>
  <outline>
    <contour>
      <point x="90.86153846153846" y="-235.6" type="line"/>
      <point x="164.43076923076924" y="-193.92307692307693"/>
      <point x="292.61538461538464" y="-78.16923076923077"/>
      <point x="332.9846153846154" y="17.83076923076923" type="qcurve"/>
      <point x="199.2923076923077" y="17.83076923076923"/>
      <point x="83.23076923076923" y="137.6769230769231"/>
      <point x="83.23076923076923" y="222.8923076923077" type="qcurve" smooth="yes"/>
      <point x="83.23076923076923" y="306.73846153846154"/>
      <point x="209.66153846153847" y="434.6923076923077"/>
      <point x="309.9846153846154" y="434.6923076923077" type="qcurve" smooth="yes"/>
      <point x="407.5692307692308" y="434.6923076923077"/>
      <point x="529.8" y="331.0923076923077"/>
      <point x="529.8" y="218.92307692307693" type="qcurve" smooth="yes"/>
      <point x="529.8" y="70.90769230769232"/>
      <point x="279.73846153846154" y="-224.63076923076923"/>
      <point x="129.67692307692306" y="-285.0" type="qcurve"/>
    </contour>
  </outline>
</glyph>
<glyph name="quotedblleft" format="2">
  <advance width="1112"/>
  <unicode hex="201C"/>
  <outline>
    <contour>
      <point x="501.3538461538461" y="1511.2769230769231" type="line"/>
      <point x="425.89230769230767" y="1464.553846153846"/>
      <point x="296.44615384615383" y="1329.246153846154"/>
      <point x="260.4923076923077" y="1231.9846153846154" type="qcurve"/>
      <point x="391.6615384615385" y="1231.9846153846154"/>
      <point x="505.2" y="1117.1846153846154"/>
      <point x="505.2" y="1035.123076923077" type="qcurve" smooth="yes"/>
      <point x="505.2" y="955.0615384615385"/>
      <point x="382.55384615384617" y="829.6307692307693"/>
      <point x="284.12307692307695" y="829.6307692307693" type="qcurve" smooth="yes"/>
      <point x="187.8" y="829.6307692307693"/>
      <point x="68.72307692307692" y="933.8615384615384"/>
      <point x="68.72307692307692" y="1045.4" type="qcurve" smooth="yes"/>
      <point x="68.72307692307692" y="1186.4769230769232"/>
      <point x="318.15384615384613" y="1495.8923076923077"/>
      <point x="462.53846153846155" y="1561.9384615384615" type="qcurve"/>
    </contour>
    <contour>
      <point x="1010.2615384615385" y="1511.2769230769231" type="line"/>
      <point x="934.8" y="1464.553846153846"/>
      <point x="805.3538461538461" y="1329.246153846154"/>
      <point x="769.4" y="1231.9846153846154" type="qcurve"/>
      <point x="900.5692307692308" y="1231.9846153846154"/>
      <point x="1014.1076923076923" y="1117.1846153846154"/>
      <point x="1014.1076923076923" y="1035.123076923077" type="qcurve" smooth="yes"/>
      <point x="1014.1076923076923" y="955.0615384615385"/>
      <point x="891.4615384615385" y="829.6307692307693"/>
      <point x="793.0307692307692" y="829.6307692307693" type="qcurve" smooth="yes"/>
      <point x="696.7076923076924" y="829.6307692307693"/>
      <point x="577.6307692307693" y="933.8615384615384"/>
      <point x="577.6307692307693" y="1045.4" type="qcurve" smooth="yes"/>
      <point x="577.6307692307693" y="1186.4769230769232"/>
      <point x="827.0615384615385" y="1495.8923076923077"/>
      <point x="971.4461538461538" y="1561.9384615384615" type="qcurve"/>
    </contour>
  </outline>
</glyph>
<glyph name="quotedblright" format="2">
  <advance width="1112"/>
  <unicode hex="201D"/>
  <outline>
    <contour>
      <point x="83.92307692307692" y="854.2615384615384" type="line"/>
      <point x="159.3846153846154" y="900.9846153846154"/>
      <point x="288.83076923076925" y="1036.2923076923078"/>
      <point x="324.7846153846154" y="1133.553846153846" type="qcurve"/>
      <point x="193.6153846153846" y="1133.553846153846"/>
      <point x="80.07692307692308" y="1248.3538461538462"/>
      <point x="80.07692307692308" y="1330.4153846153847" type="qcurve" smooth="yes"/>
      <point x="80.07692307692308" y="1410.4769230769232"/>
      <point x="202.72307692307692" y="1535.2769230769231"/>
      <point x="301.15384615384613" y="1535.2769230769231" type="qcurve" smooth="yes"/>
      <point x="397.4769230769231" y="1535.2769230769231"/>
      <point x="516.5538461538462" y="1434.2"/>
      <point x="516.5538461538462" y="1327.076923076923" type="qcurve" smooth="yes"/>
      <point x="516.5538461538462" y="1186.0"/>
      <point x="267.12307692307695" y="869.6461538461539"/>
      <point x="122.73846153846154" y="803.6" type="qcurve"/>
    </contour>
    <contour>
      <point x="601.0307692307692" y="854.2615384615384" type="line"/>
      <point x="676.4923076923077" y="900.9846153846154"/>
      <point x="805.9384615384615" y="1036.2923076923078"/>
      <point x="841.8923076923077" y="1133.553846153846" type="qcurve"/>
      <point x="710.723076923077" y="1133.553846153846"/>
      <point x="597.1846153846154" y="1248.3538461538462"/>
      <point x="597.1846153846154" y="1330.4153846153847" type="qcurve" smooth="yes"/>
      <point x="597.1846153846154" y="1410.4769230769232"/>
      <point x="719.8307692307692" y="1535.2769230769231"/>
      <point x="818.2615384615385" y="1535.2769230769231" type="qcurve" smooth="yes"/>
      <point x="914.5846153846154" y="1535.2769230769231"/>
      <point x="1033.6615384615384" y="1434.2"/>
      <point x="1033.6615384615384" y="1327.076923076923" type="qcurve" smooth="yes"/>
      <point x="1033.6615384615384" y="1186.0"/>
      <point x="784.2307692307693" y="869.6461538461539"/>
      <point x="639.8461538461538" y="803.6" type="qcurve"/>
    </contour>
  </outline>
</glyph>
<glyph name="minute" format="2">
  <advance width="556"/>
  <unicode hex="2032"/>
  <outline>
    <contour>
      <point x="101.90850202429151" y="952.9230769230769" type="line"/>
      <point x="239.29473684210527" y="1424.9983805668016" type="line" smooth="yes"/>
      <point x="264.3846153846154" y="1487.978137651822"/>
      <point x="371.5133603238866" y="1550.8040485829958"/>
      <point x="448.01376518218626" y="1519.7603238866398" type="qcurve" smooth="yes"/>
      <point x="517.1449392712551" y="1490.14979757085"/>
      <point x="522.6194331983806" y="1357.238866396761"/>
      <point x="474.16275303643727" y="1300.2129554655871" type="qcurve" smooth="yes"/>
      <point x="157.8064777327935" y="947.876923076923" type="line"/>
    </contour>
  </outline>
</glyph>
<glyph name="second" format="2">
  <advance width="977"/>
  <unicode hex="2033"/>
  <outline>
    <contour>
      <point x="101.90850202429151" y="952.2923076923076" type="line"/>
      <point x="239.29473684210527" y="1424.3676113360325" type="line" smooth="yes"/>
      <point x="264.3846153846154" y="1487.3473684210526"/>
      <point x="371.5133603238866" y="1550.1732793522267"/>
      <point x="448.01376518218626" y="1519.1295546558706" type="qcurve" smooth="yes"/>
      <point x="517.1449392712551" y="1489.519028340081"/>
      <point x="522.6194331983806" y="1356.608097165992"/>
      <point x="474.16275303643727" y="1299.582186234818" type="qcurve" smooth="yes"/>
      <point x="157.8064777327935" y="947.2461538461539" type="line"/>
    </contour>
    <contour>
      <point x="522.782995951417" y="952.2923076923076" type="line"/>
      <point x="660.1692307692307" y="1424.3676113360325" type="line" smooth="yes"/>
      <point x="685.2591093117409" y="1487.3473684210526"/>
      <point x="792.3878542510122" y="1550.1732793522267"/>
      <point x="868.8882591093118" y="1519.1295546558706" type="qcurve" smooth="yes"/>
      <point x="938.0194331983806" y="1489.519028340081"/>
      <point x="943.493927125506" y="1356.608097165992"/>
      <point x="895.0372469635628" y="1299.582186234818" type="qcurve" smooth="yes"/>
      <point x="578.6809716599191" y="947.2461538461539" type="line"/>
    </contour>
  </outline>
</glyph>
<glyph name="foursuperior" format="2">
  <advance width="880"/>
  <unicode hex="2074"/>
  <outline>
    <contour>
      <point x="24.972469635627533" y="1024.9846153846154" type="line"/>
      <point x="420.302024291498" y="1544.4502024291498" type="line"/>
      <point x="631.5060728744938" y="1525.7117408906881" type="line"/>
      <point x="672.2445344129554" y="1490.8655870445343" type="line"/>
      <point x="675.2445344129554" y="989.6307692307693" type="line"/>
      <point x="675.2445344129554" y="826.5562753036437" type="line"/>
      <point x="813.5943319838057" y="801.187044534413" type="line"/>
      <point x="813.5943319838057" y="730.8793522267207" type="line"/>
      <point x="251.14817813765183" y="730.8793522267207" type="line"/>
      <point x="251.14817813765183" y="801.187044534413" type="line"/>
      <point x="393.1603238866397" y="826.5562753036437" type="line"/>
      <point x="400.84048582995956" y="988.6307692307693" type="line"/>
      <point x="405.84048582995956" y="1407.0655870445344" type="line"/>
      <point x="154.9943319838057" y="1051.1384615384616" type="line"/>
      <point x="157.25587044534416" y="1037.553846153846" type="line"/>
      <point x="860.57004048583" y="1033.553846153846" type="line"/>
      <point x="860.57004048583" y="950.2" type="line"/>
      <point x="45.81862348178138" y="948.8307692307692" type="line"/>
    </contour>
  </outline>
</glyph>
<glyph name="naira" format="2">
  <advance width="1548"/>
  <unicode hex="20A6"/>
  <outline>
    <contour>
      <point x="74.75384615384615" y="0.0" type="line"/>
      <point x="74.75384615384615" y="82.6923076923077" type="line"/>
      <point x="233.35384615384615" y="117.6923076923077" type="line"/>
      <point x="236.6153846153846" y="753.3692307692307" type="line"/>
      <point x="234.6153846153846" y="1376.6153846153845" type="line"/>
      <point x="74.75384615384615" y="1410.6153846153845" type="line"/>
      <point x="74.75384615384615" y="1500.0" type="line"/>
      <point x="650.0769230769231" y="1500.0" type="line"/>
      <point x="942.6461538461539" y="930.3044534412955" type="line"/>
      <point x="1191.753846153846" y="439.2153846153846" type="line"/>
      <point x="1190.753846153846" y="804.2615384615384" type="line"/>
      <point x="1189.3846153846155" y="1376.6153846153845" type="line"/>
      <point x="1020.4307692307692" y="1410.6153846153845" type="line"/>
      <point x="1020.4307692307692" y="1500.0" type="line"/>
      <point x="1458.3076923076924" y="1500.0" type="line"/>
      <point x="1458.3076923076924" y="1410.6153846153845" type="line"/>
      <point x="1298.923076923077" y="1376.6153846153845" type="line"/>
      <point x="1295.6615384615384" y="778.3692307692307" type="line"/>
      <point x="1294.1846153846154" y="0.0" type="line"/>
      <point x="944.6923076923077" y="0.0" type="line"/>
      <point x="608.0769230769231" y="650.0769230769231" type="line"/>
      <point x="335.73846153846154" y="1203.9692307692308" type="line"/>
      <point x="340.89230769230767" y="712.8" type="line"/>
      <point x="342.89230769230767" y="117.6923076923077" type="line"/>
      <point x="513.0" y="82.6923076923077" type="line"/>
      <point x="513.0" y="0.0" type="line"/>
    </contour>
    <contour>
      <point x="1506.0" y="599.3174089068826" type="line"/>
      <point x="1264.4615384615386" y="599.3174089068826" type="line"/>
      <point x="1264.4615384615386" y="613.1497975708503" type="line"/>
      <point x="856.3862348178137" y="613.1497975708503" type="line"/>
      <point x="828.6923076923077" y="696.9230769230769" type="line"/>
      <point x="1264.4615384615386" y="696.9230769230769" type="line"/>
      <point x="1264.4615384615386" y="708.2493927125506" type="line"/>
      <point x="1481.2307692307693" y="708.2493927125506" type="line"/>
    </contour>
    <contour>
      <point x="77.38461538461539" y="599.6226720647774" type="line"/>
      <point x="57.30769230769231" y="708.2493927125506" type="line"/>
      <point x="308.9230769230769" y="708.2493927125506" type="line"/>
      <point x="308.9230769230769" y="708.9870445344129" type="line"/>
      <point x="823.6923076923077" y="708.9870445344129" type="line"/>
      <point x="860.4736842105264" y="602.0186234817813" type="line"/>
      <point x="308.9230769230769" y="602.0186234817813" type="line"/>
      <point x="308.9230769230769" y="599.6226720647774" type="line"/>
    </contour>
    <contour>
      <point x="1506.0" y="895.3813765182186" type="line"/>
      <point x="1264.4615384615386" y="895.3813765182186" type="line"/>
      <point x="1264.4615384615386" y="895.2307692307693" type="line"/>
      <point x="713.7692307692307" y="895.2307692307693" type="line"/>
      <point x="656.0923076923077" y="1004.0307692307692" type="line"/>
      <point x="1264.4615384615386" y="1004.0307692307692" type="line"/>
      <point x="1264.4615384615386" y="1004.6186234817814" type="line"/>
      <point x="1481.2307692307693" y="1004.6186234817814" type="line"/>
    </contour>
    <contour>
      <point x="77.38461538461539" y="895.3813765182186" type="line"/>
      <point x="57.30769230769231" y="1004.6186234817814" type="line"/>
      <point x="308.9230769230769" y="1004.6186234817814" type="line"/>
      <point x="308.9230769230769" y="991.8153846153846" type="line"/>
      <point x="664.5692307692308" y="991.8153846153846" type="line"/>
      <point x="705.7692307692307" y="905.6" type="line"/>
      <point x="308.9230769230769" y="905.6" type="line"/>
      <point x="308.9230769230769" y="895.3813765182186" type="line"/>
    </contour>
  </outline>
</glyph>
<glyph name="kip" format="2">
  <advance width="1597"/>
  <unicode hex="20AD"/>
  <outline>
    <contour>
      <point x="78.75384615384615" y="0.0" type="line"/>
      <point x="78.75384615384615" y="82.6923076923077" type="line"/>
      <point x="217.93846153846152" y="111.6923076923077" type="line"/>
      <point x="219.93846153846152" y="754.0" type="line"/>
      <point x="217.93846153846152" y="1375.6153846153845" type="line"/>
      <point x="78.75384615384615" y="1409.6153846153845" type="line"/>
      <point x="78.75384615384615" y="1500.0" type="line"/>
      <point x="811.5384615384615" y="1500.0" type="line"/>
      <point x="811.5384615384615" y="1409.6153846153845" type="line"/>
      <point x="660.1076923076923" y="1375.6153846153845" type="line"/>
      <point x="656.2153846153847" y="754.0" type="line"/>
      <point x="660.1076923076923" y="111.6923076923077" type="line"/>
      <point x="787.2307692307693" y="82.6923076923077" type="line"/>
      <point x="787.2307692307693" y="0.0" type="line"/>
    </contour>
    <contour>
      <point x="546.4615384615385" y="388.2153846153846" type="line"/>
      <point x="534.9384615384615" y="525.9230769230769" type="line"/>
      <point x="1240.3692307692309" y="1380.1384615384616" type="line"/>
      <point x="1109.6" y="1410.6153846153845" type="line"/>
      <point x="1109.6" y="1500.0" type="line"/>
      <point x="1575.5384615384614" y="1500.0" type="line"/>
      <point x="1575.5384615384614" y="1410.6153846153845" type="line"/>
      <point x="1394.3538461538462" y="1380.1384615384616" type="line"/>
      <point x="1032.3846153846155" y="952.6461538461539" type="line"/>
      <point x="977.2615384615384" y="867.7692307692307" type="line"/>
    </contour>
    <contour>
      <point x="795.3692307692307" y="745.0153846153846" type="line"/>
      <point x="1097.6923076923076" y="1115.4769230769232" type="line"/>
      <point x="1549.6461538461538" y="111.6923076923077" type="line"/>
      <point x="1643.2307692307693" y="82.6923076923077" type="line"/>
      <point x="1643.2307692307693" y="0.0" type="line"/>
      <point x="991.0769230769231" y="0.0" type="line"/>
      <point x="991.0769230769231" y="82.6923076923077" type="line"/>
      <point x="1082.1384615384616" y="111.6923076923077" type="line"/>
    </contour>
    <contour>
      <point x="1472.5384615384614" y="734.8307692307692" type="line"/>
      <point x="1023.0" y="734.8307692307692" type="line"/>
      <point x="1023.0" y="744.4307692307692" type="line"/>
      <point x="912.4615384615385" y="744.4307692307692" type="line"/>
      <point x="883.3076923076923" y="851.0153846153846" type="line"/>
      <point x="933.0" y="851.0153846153846" type="line"/>
      <point x="933.0" y="858.0307692307692" type="line"/>
      <point x="1441.4615384615386" y="858.0307692307692" type="line"/>
    </contour>
    <contour>
      <point x="85.0" y="734.8307692307692" type="line"/>
      <point x="58.61538461538461" y="857.6615384615385" type="line"/>
      <point x="391.7692307692308" y="857.6615384615385" type="line"/>
      <point x="391.7692307692308" y="851.0153846153846" type="line"/>
      <point x="883.3076923076923" y="851.0153846153846" type="line"/>
      <point x="912.4615384615385" y="744.4307692307692" type="line"/>
      <point x="391.7692307692308" y="744.4307692307692" type="line"/>
      <point x="391.7692307692308" y="734.8307692307692" type="line"/>
    </contour>
  </outline>
</glyph>
<glyph name="greaterequal" format="2">
  <advance width="992"/>
  <unicode hex="2265"/>
  <outline>
    <contour>
      <point x="92.64615384615385" y="-11.615384615384615" type="line"/>
      <point x="92.64615384615385" y="218.73846153846154" type="line"/>
      <point x="923.4923076923077" y="218.73846153846154" type="line"/>
      <point x="923.4923076923077" y="-11.615384615384615" type="line"/>
    </contour>
    <contour>
      <point x="930.5384615384615" y="764.4615384615385" type="qcurve"/>
      <point x="929.276923076923" y="748.6923076923077"/>
      <point x="409.38461538461536" y="406.3076923076923"/>
      <point x="318.87692307692305" y="356.0923076923077" type="qcurve" smooth="yes"/>
      <point x="276.46153846153845" y="327.84615384615387"/>
      <point x="160.2153846153846" y="471.66153846153844"/>
      <point x="205.7846153846154" y="515.0153846153846" type="qcurve" smooth="yes"/>
      <point x="280.4" y="578.4769230769231"/>
      <point x="511.3076923076923" y="773.7692307692307"/>
      <point x="486.7076923076923" y="765.5692307692308" type="qcurve"/>
      <point x="507.5230769230769" y="758.6307692307693"/>
      <point x="312.8" y="933.6307692307693"/>
      <point x="209.7846153846154" y="1014.2923076923076" type="qcurve"/>
      <point x="162.2153846153846" y="1058.2769230769231"/>
      <point x="274.0923076923077" y="1209.6153846153845"/>
      <point x="331.24615384615385" y="1168.7384615384615" type="qcurve" smooth="yes"/>
      <point x="401.9384615384615" y="1126.0923076923077"/>
      <point x="917.2923076923076" y="784.0153846153846"/>
    </contour>
  </outline>
</glyph>
<glyph name="diagonalbaro" format="2">
  <advance width="512"/>
  <outline>
    <contour>
      <point x="-7.846153846153847" y="-122.0" type="line"/>
      <point x="41.95384615384615" y="49.41538461538462" type="line"/>
      <point x="58.599999999999994" y="45.56923076923077" type="line"/>
      <point x="210.4923076923077" y="585.8615384615384" type="line"/>
      <point x="335.44615384615383" y="561.6615384615385" type="line"/>
      <point x="190.09230769230768" y="30.400000000000002" type="line"/>
      <point x="207.47692307692307" y="27.923076923076923" type="line"/>
      <point x="166.04615384615386" y="-125.0" type="line"/>
    </contour>
    <contour>
      <point x="356.15384615384613" y="1185.0" type="line"/>
      <point x="539.0461538461539" y="1185.0" type="line"/>
      <point x="475.7846153846154" y="953.276923076923" type="line"/>
      <point x="459.03076923076924" y="959.7538461538461" type="line"/>
      <point x="335.44615384615383" y="561.6615384615385" type="line"/>
      <point x="210.4923076923077" y="585.8615384615384" type="line"/>
      <point x="327.38461538461536" y="988.2923076923076" type="line"/>
      <point x="310.0" y="991.1384615384616" type="line"/>
    </contour>
  </outline>
</glyph>
<glyph name="dollar.rvrn" format="2">
  <advance width="1120"/>
  <outline>
    <contour>
      <point x="60.84615384615385" y="152.4923076923077" type="qcurve"/>
      <point x="114.58137651821863" y="261.1076923076923" type="line"/>
      <point x="167.10526315789474" y="174.40485829959516"/>
      <point x="374.99595141700405" y="66.56275303643724"/>
      <point x="514.6858299595142" y="66.56275303643724" type="qcurve" smooth="yes"/>
      <point x="639.5449392712551" y="66.56275303643724"/>
      <point x="747.4825910931174" y="195.1352226720648"/>
      <point x="747.4825910931174" y="304.92874493927127" type="qcurve" smooth="yes"/>
      <point x="747.4825910931174" y="425.4153846153846"/>
      <point x="598.1846153846154" y="542.3538461538461"/>
      <point x="435.8" y="633.4769230769231" type="qcurve" smooth="yes"/>
      <point x="255.33846153846153" y="732.2923076923076"/>
      <point x="74.15384615384616" y="956.5538461538462"/>
      <point x="74.15384615384616" y="1127.923076923077" type="qcurve" smooth="yes"/>
      <point x="74.15384615384616" y="1307.1846153846154"/>
      <point x="332.66153846153844" y="1510.7230769230769"/>
      <point x="540.2615384615385" y="1510.7230769230769" type="qcurve" smooth="yes"/>
      <point x="686.0153846153846" y="1510.7230769230769"/>
      <point x="880.3692307692307" y="1442.7230769230769"/>
      <point x="953.5538461538462" y="1383.4923076923078" type="qcurve"/>
      <point x="896.5295546558705" y="1285.0704453441294" type="line"/>
      <point x="819.872064777328" y="1365.6753036437249"/>
      <point x="636.8744939271254" y="1447.527125506073"/>
      <point x="538.4340080971659" y="1447.527125506073" type="qcurve" smooth="yes"/>
      <point x="440.84210526315786" y="1447.527125506073"/>
      <point x="328.09473684210525" y="1350.395951417004"/>
      <point x="328.09473684210525" y="1251.7093117408908" type="qcurve" smooth="yes"/>
      <point x="328.09473684210525" y="1138.753846153846"/>
      <point x="473.0153846153846" y="1035.5076923076922"/>
      <point x="629.5846153846154" y="951.9538461538461" type="qcurve" smooth="yes"/>
      <point x="804.5384615384615" y="859.6"/>
      <point x="1049.1846153846154" y="616.0307692307692"/>
      <point x="1049.1846153846154" y="436.0153846153846" type="qcurve" smooth="yes"/>
      <point x="1049.1846153846154" y="229.53846153846155"/>
      <point x="791.1384615384616" y="-2.7846153846153845"/>
      <point x="555.1076923076923" y="-2.7846153846153845" type="qcurve" smooth="yes"/>
      <point x="372.53846153846155" y="-2.7846153846153845"/>
      <point x="126.49230769230769" y="76.43076923076923"/>
    </contour>
    <contour>
      <point x="507.0574898785425" y="-156.76923076923077" type="line"/>
      <point x="507.0574898785425" y="57.0" type="line"/>
      <point x="507.3368421052632" y="57.0" type="line"/>
      <point x="507.3368421052632" y="58.0" type="line"/>
      <point x="592.8323886639677" y="58.0" type="line"/>
      <point x="592.8323886639677" y="57.0" type="line"/>
      <point x="594.5449392712551" y="57.0" type="line"/>
      <point x="594.5449392712551" y="-152.0" type="line"/>
    </contour>
    <contour>
      <point x="498.6882591093118" y="1632.123076923077" type="line"/>
      <point x="587.480971659919" y="1640.4615384615386" type="line"/>
      <point x="587.480971659919" y="1423.0" type="line"/>
      <point x="585.8323886639677" y="1423.0" type="line"/>
      <point x="585.8323886639677" y="1422.0" type="line"/>
      <point x="501.3368421052632" y="1422.0" type="line"/>
      <point x="501.3368421052632" y="1423.0" type="line"/>
      <point x="498.6882591093118" y="1423.0" type="line"/>
    </contour>
  </outline>
</glyph>
<glyph name="dotbelowcomb.case" format="2">
  <advance width="943"/>
  <outline>
    <contour>
      <point x="366.7230769230769" y="-296.9230769230769" type="qcurve" smooth="yes"/>
      <point x="366.7230769230769" y="-227.6"/>
      <point x="442.67692307692306" y="-154.27692307692308"/>
      <point x="513.0" y="-154.27692307692308" type="qcurve" smooth="yes"/>
      <point x="579.9538461538461" y="-154.27692307692308"/>
      <point x="659.276923076923" y="-233.6"/>
      <point x="659.276923076923" y="-296.9230769230769" type="qcurve" smooth="yes"/>
      <point x="659.276923076923" y="-366.5076923076923"/>
      <point x="585.3230769230769" y="-440.2"/>
      <point x="513.0" y="-440.2" type="qcurve" smooth="yes"/>
      <point x="446.04615384615386" y="-440.2"/>
      <point x="366.7230769230769" y="-362.5076923076923"/>
    </contour>
  </outline>
</glyph>
<glyph name="four.lf" format="2">
  <advance width="1249"/>
  <outline>
    <contour>
      <point x="-11.267206477732792" y="512.6615384615385" type="line"/>
      <point x="635.8404858299596" y="1491.4923076923078" type="line"/>
      <point x="966.8404858299596" y="1472.6" type="line"/>
      <point x="1011.2712550607288" y="1420.3846153846155" type="line"/>
      <point x="1006.2712550607288" y="521.9384615384615" type="line"/>
      <point x="1005.2712550607288" y="114.84615384615384" type="line"/>
      <point x="1186.1020242914979" y="79.84615384615384" type="line"/>
      <point x="1186.1020242914979" y="0.0" type="line"/>
      <point x="343.702024291498" y="0.0" type="line"/>
      <point x="343.702024291498" y="79.84615384615384" type="line"/>
      <point x="536.578947368421" y="114.84615384615384" type="line"/>
      <point x="532.902024291498" y="523.0923076923077" type="line"/>
      <point x="530.6866396761134" y="1182.8307692307692" type="line"/>
      <point x="145.87125506072874" y="581.5538461538462" type="line"/>
      <point x="143.97894736842107" y="565.4461538461538" type="line"/>
      <point x="1220.932793522267" y="571.123076923077" type="line"/>
      <point x="1220.932793522267" y="462.38461538461536" type="line"/>
      <point x="3.05587044534413" y="433.6" type="line"/>
    </contour>
  </outline>
</glyph>
<glyph name="tildecomb.case" format="2">
  <advance width="943"/>
  <outline>
    <contour>
      <point x="136.86153846153846" y="1712.2" type="line"/>
      <point x="164.03076923076924" y="1779.1076923076923"/>
      <point x="280.84615384615387" y="1903.2153846153847"/>
      <point x="351.96923076923076" y="1903.2153846153847" type="qcurve" smooth="yes"/>
      <point x="393.81538461538463" y="1903.2153846153847"/>
      <point x="456.9384615384615" y="1882.6307692307691"/>
      <point x="494.26153846153846" y="1859.7846153846153" type="qcurve" smooth="yes"/>
      <point x="535.2" y="1832.4769230769232"/>
      <point x="599.7076923076924" y="1801.246153846154"/>
      <point x="638.4" y="1801.246153846154" type="qcurve" smooth="yes"/>
      <point x="674.2" y="1801.246153846154"/>
      <point x="736.3846153846154" y="1847.2"/>
      <point x="755.0769230769231" y="1881.1538461538462" type="qcurve"/>
      <point x="803.1538461538462" y="1821.8461538461538" type="line"/>
      <point x="772.2461538461539" y="1743.8307692307692"/>
      <point x="670.5846153846154" y="1642.4615384615386"/>
      <point x="610.3076923076923" y="1642.4615384615386" type="qcurve" smooth="yes"/>
      <point x="567.1384615384616" y="1642.4615384615386"/>
      <point x="489.0" y="1672.323076923077"/>
      <point x="455.4769230769231" y="1690.323076923077" type="qcurve" smooth="yes"/>
      <point x="414.4769230769231" y="1712.4307692307693"/>
      <point x="354.61538461538464" y="1744.4307692307693"/>
      <point x="325.1384615384615" y="1744.4307692307693" type="qcurve" smooth="yes"/>
      <point x="281.33846153846156" y="1744.4307692307693"/>
      <point x="197.69230769230768" y="1681.0"/>
      <point x="182.1076923076923" y="1655.7846153846153" type="qcurve"/>
    </contour>
  </outline>
</glyph>
<glyph name="zero.lf" format="2">
  <advance width="1360"/>
  <outline>
    <contour>
      <point x="48.01538461538462" y="754.8923076923077" type="qcurve" smooth="yes"/>
      <point x="48.01538461538462" y="1145.1846153846154"/>
      <point x="418.2153846153846" y="1525.0"/>
      <point x="682.6615384615385" y="1525.0" type="qcurve" smooth="yes"/>
      <point x="948.2153846153847" y="1525.0"/>
      <point x="1311.676923076923" y="1148.923076923077"/>
      <point x="1311.676923076923" y="756.0" type="qcurve" smooth="yes"/>
      <point x="1311.676923076923" y="372.2923076923077"/>
      <point x="954.5846153846154" y="-28.52307692307692"/>
      <point x="685.5076923076923" y="-28.52307692307692" type="qcurve" smooth="yes"/>
      <point x="425.0" y="-28.52307692307692"/>
      <point x="48.01538461538462" y="352.81538461538463"/>
    </contour>
    <contour>
      <point x="548.8153846153846" y="772.4153846153846" type="qcurve" smooth="yes"/>
      <point x="549.8153846153846" y="299.2"/>
      <point x="604.4769230769231" y="55.49230769230769"/>
      <point x="680.2923076923076" y="55.49230769230769" type="qcurve" smooth="yes"/>
      <point x="754.9538461538461" y="55.49230769230769"/>
      <point x="810.5076923076923" y="273.7230769230769"/>
      <point x="810.876923076923" y="758.9384615384615" type="qcurve" smooth="yes"/>
      <point x="811.876923076923" y="1240.6153846153845"/>
      <point x="747.3230769230769" y="1436.446153846154"/>
      <point x="678.4" y="1436.446153846154" type="qcurve" smooth="yes"/>
      <point x="610.6307692307693" y="1436.446153846154"/>
      <point x="548.8153846153846" y="1257.0923076923077"/>
    </contour>
  </outline>
</glyph>
